<svg viewBox="0 0 30 30" xmlns="http://www.w3.org/2000/svg" xmlns:xlink="http://www.w3.org/1999/xlink" width="30.000000" height="30.000000" fill="none">
	<rect id="email 1" width="30.000000" height="30.000000" x="0.000000" y="0.000000" fill="rgb(255,255,255)" fill-opacity="0" />
	<path id="Vector" d="M26.4 6.89999L3.6 6.89999C3.27 6.89999 3 7.16999 3 7.49999L3 22.5C3 22.83 3.27 23.1 3.6 23.1L26.4 23.1C26.73 23.1 27 22.83 27 22.5L27 7.49999C27 7.16999 26.73 6.89999 26.4 6.89999ZM24.96 8.09999L15 18.06L5.04 8.09999L24.96 8.09999ZM4.2 8.93999L10.26 15L4.2 21.06L4.2 8.93999ZM5.07 21.9L11.1 15.87L14.58 19.35C14.82 19.59 15.18 19.59 15.42 19.35L18.9 15.87L24.93 21.9L5.07 21.9ZM25.8 21.06L19.74 15L25.8 8.93999L25.8 21.06Z" fill="rgb(255,255,255)" fill-rule="nonzero" />
	<path id="Vector" d="M241.2 -153L241.2 352.2L-294 352.2L-294 -153L241.2 -153ZM243.6 -155.4L-296.4 -155.4L-296.4 354.6L243.6 354.6L243.6 -155.4Z" fill="rgb(0,0,255)" fill-rule="nonzero" />
</svg>
