<svg viewBox="0 0 25 25" xmlns="http://www.w3.org/2000/svg" xmlns:xlink="http://www.w3.org/1999/xlink" width="25.000000" height="25.000000" fill="none">
	<rect id="globe" width="25.000000" height="25.000000" x="0.000000" y="0.000000" fill="rgb(0,0,0)" fill-opacity="0" />
	<path id="Vector" d="M16.8213 7.8125C16.1133 3.45215 14.4434 0.390625 12.5 0.390625C10.5566 0.390625 8.88672 3.45215 8.17871 7.8125L16.8213 7.8125ZM7.8125 12.5C7.8125 13.584 7.87109 14.624 7.97363 15.625L17.0215 15.625C17.124 14.624 17.1826 13.584 17.1826 12.5C17.1826 11.416 17.124 10.376 17.0215 9.375L7.97363 9.375C7.87109 10.376 7.8125 11.416 7.8125 12.5ZM23.667 7.8125C22.2705 4.49707 19.4434 1.93359 15.9521 0.898438C17.1436 2.54883 17.9639 5.03418 18.3936 7.8125L23.667 7.8125ZM9.04297 0.898438C5.55664 1.93359 2.72461 4.49707 1.33301 7.8125L6.60645 7.8125C7.03125 5.03418 7.85156 2.54883 9.04297 0.898438L9.04297 0.898438ZM24.1895 9.375L18.5889 9.375C18.6914 10.4004 18.75 11.4502 18.75 12.5C18.75 13.5498 18.6914 14.5996 18.5889 15.625L24.1846 15.625C24.4531 14.624 24.6045 13.584 24.6045 12.5C24.6045 11.416 24.4531 10.376 24.1895 9.375ZM6.25 12.5C6.25 11.4502 6.30859 10.4004 6.41113 9.375L0.810547 9.375C0.546875 10.376 0.390625 11.416 0.390625 12.5C0.390625 13.584 0.546875 14.624 0.810547 15.625L6.40625 15.625C6.30859 14.5996 6.25 13.5498 6.25 12.5L6.25 12.5ZM8.17871 17.1875C8.88672 21.5479 10.5566 24.6094 12.5 24.6094C14.4434 24.6094 16.1133 21.5479 16.8213 17.1875L8.17871 17.1875ZM15.957 24.1016C19.4434 23.0664 22.2754 20.5029 23.6719 17.1875L18.3984 17.1875C17.9688 19.9658 17.1484 22.4512 15.957 24.1016ZM1.33301 17.1875C2.72949 20.5029 5.55664 23.0664 9.04785 24.1016C7.85645 22.4512 7.03613 19.9658 6.60645 17.1875L1.33301 17.1875L1.33301 17.1875Z" fill="rgb(0,0,0)" fill-rule="nonzero" />
</svg>
