<svg width="377" height="93" viewBox="0 0 377 93" fill="none" xmlns="http://www.w3.org/2000/svg">
<path d="M100.45 56.0887C99.05 56.0887 98.35 55.2387 98.35 53.5387V51.1887C98.35 50.0054 98.6333 49.1137 99.2 48.5137C99.7667 47.897 100.6 47.572 101.7 47.5387C102.1 46.6887 102.517 45.472 102.95 43.8887C103.4 42.3054 103.833 40.497 104.25 38.4637C104.683 36.4137 105.067 34.2637 105.4 32.0137C105.75 29.7637 106.025 27.5304 106.225 25.3137C106.425 23.0804 106.517 21.0054 106.5 19.0887H123.95V47.5887C124.933 47.6554 125.675 47.9887 126.175 48.5887C126.692 49.1887 126.95 50.0554 126.95 51.1887V53.5387C126.95 55.2387 126.25 56.0887 124.85 56.0887C123.45 56.0887 122.75 55.2387 122.75 53.5387V51.4887H102.55V53.5387C102.55 55.2387 101.85 56.0887 100.45 56.0887ZM106.325 47.2887H119.75V23.2887H111.05C111 24.772 110.867 26.397 110.65 28.1637C110.45 29.9137 110.192 31.7054 109.875 33.5387C109.558 35.372 109.2 37.1554 108.8 38.8887C108.417 40.6054 108.008 42.1887 107.575 43.6387C107.158 45.0887 106.742 46.3054 106.325 47.2887ZM144.462 51.4887C141.262 51.4887 138.712 51.2054 136.812 50.6387C134.928 50.0554 133.57 49.097 132.737 47.7637C131.92 46.4137 131.512 44.5887 131.512 42.2887V37.0387C131.512 34.7387 131.92 32.922 132.737 31.5887C133.57 30.2387 134.928 29.2804 136.812 28.7137C138.712 28.1304 141.262 27.8387 144.462 27.8387H145.912C149.112 27.8387 151.653 28.1304 153.537 28.7137C155.42 29.297 156.77 30.2637 157.587 31.6137C158.403 32.947 158.812 34.7554 158.812 37.0387V39.7387H135.712V42.1387C135.712 43.6054 135.912 44.7137 136.312 45.4637C136.728 46.197 137.562 46.6887 138.812 46.9387C140.062 47.172 141.945 47.2887 144.462 47.2887H152.162C152.945 47.2887 153.462 47.147 153.712 46.8637C153.978 46.5804 154.112 46.022 154.112 45.1887C154.112 44.3554 154.295 43.7054 154.662 43.2387C155.045 42.772 155.57 42.5387 156.237 42.5387C156.92 42.5554 157.437 42.8137 157.787 43.3137C158.137 43.797 158.312 44.4887 158.312 45.3887C158.312 46.772 158.103 47.922 157.687 48.8387C157.27 49.7387 156.628 50.4054 155.762 50.8387C154.912 51.272 153.828 51.4887 152.512 51.4887H144.462ZM135.737 35.5387H154.587C154.403 34.072 153.812 33.1387 152.812 32.7387C152.212 32.5054 151.32 32.3304 150.137 32.2137C148.97 32.097 147.562 32.0387 145.912 32.0387H144.462C142.662 32.0387 141.17 32.1054 139.987 32.2387C138.82 32.3554 137.962 32.5387 137.412 32.7887C136.412 33.2054 135.853 34.122 135.737 35.5387ZM169.88 51.4887C167.73 51.4887 166.222 50.947 165.355 49.8637C164.505 48.7804 164.08 46.9054 164.08 44.2387C164.08 42.5387 164.78 41.6887 166.18 41.6887C167.58 41.6887 168.28 42.5387 168.28 44.2387V45.1387C168.28 46.022 168.397 46.6054 168.63 46.8887C168.88 47.1554 169.413 47.2887 170.23 47.2887H179.38C183.58 47.2887 185.68 46.5887 185.68 45.1887C185.68 43.8054 185.222 42.8304 184.305 42.2637C183.405 41.6804 181.83 41.3887 179.58 41.3887H175.28C173.547 41.3887 172.68 40.722 172.68 39.3887C172.68 37.922 173.547 37.1887 175.28 37.1887H179.58C181.23 37.1887 182.497 37.1054 183.38 36.9387C184.263 36.7554 184.872 36.447 185.205 36.0137C185.555 35.5637 185.73 34.9387 185.73 34.1387C185.73 32.7387 183.613 32.0387 179.38 32.0387H170.23C169.413 32.0387 168.88 32.1804 168.63 32.4637C168.397 32.7304 168.28 33.3054 168.28 34.1887V35.0887C168.28 36.7887 167.58 37.6387 166.18 37.6387C164.78 37.6387 164.08 36.7887 164.08 35.0887C164.08 32.422 164.505 30.547 165.355 29.4637C166.222 28.3804 167.73 27.8387 169.88 27.8387H179.73C183.08 27.8387 185.605 28.4054 187.305 29.5387C189.022 30.672 189.88 32.372 189.88 34.6387C189.88 35.7387 189.688 36.697 189.305 37.5137C188.938 38.3137 188.372 38.9637 187.605 39.4637C189.122 40.6804 189.88 42.422 189.88 44.6887C189.88 46.9554 189.022 48.6554 187.305 49.7887C185.605 50.922 183.08 51.4887 179.73 51.4887H169.88ZM196.577 51.8387C195.61 51.8387 194.935 51.4554 194.552 50.6887C194.185 49.922 194.318 49.147 194.952 48.3637L206.227 33.8387V36.8387L194.927 22.2887C194.527 21.7887 194.335 21.2637 194.352 20.7137C194.385 20.147 194.585 19.672 194.952 19.2887C195.335 18.8887 195.86 18.6887 196.527 18.6887C196.893 18.6887 197.227 18.8137 197.527 19.0637C197.827 19.297 198.11 19.597 198.377 19.9637L208.977 33.9387H206.677L217.327 19.9637C217.627 19.5637 217.935 19.2637 218.252 19.0637C218.585 18.847 218.993 18.7387 219.477 18.7387C220.027 18.7387 220.468 18.922 220.802 19.2887C221.152 19.6554 221.335 20.1137 221.352 20.6637C221.385 21.197 221.185 21.7304 220.752 22.2637L209.477 36.8387V33.8387L220.752 48.3387C221.168 48.8054 221.36 49.3137 221.327 49.8637C221.31 50.397 221.11 50.8554 220.727 51.2387C220.343 51.6387 219.81 51.8387 219.127 51.8387C218.577 51.8387 217.977 51.4637 217.327 50.7137L206.677 36.6887H208.977L198.377 50.7137C197.81 51.4637 197.21 51.8387 196.577 51.8387ZM249.7 51.8387C248.3 51.8387 247.6 50.972 247.6 49.2387V33.7887L230.425 51.4887H226.5V29.9387C226.5 28.3054 227.2 27.4887 228.6 27.4887C230 27.4887 230.7 28.3554 230.7 30.0887V45.7387L248.025 27.8387H251.8V49.3887C251.8 51.022 251.1 51.8387 249.7 51.8387ZM260.825 51.8387C259.425 51.8387 258.725 51.0387 258.725 49.4387V29.9387C258.725 28.3054 259.392 27.4887 260.725 27.4887C261.542 27.4887 262.259 27.9137 262.875 28.7637L272.125 41.7137L281.425 28.7637C282.025 27.9137 282.725 27.4887 283.525 27.4887C284.892 27.4887 285.575 28.3054 285.575 29.9387V49.4387C285.575 51.0387 284.875 51.8387 283.475 51.8387C282.075 51.8387 281.375 50.9887 281.375 49.2887V34.7387L273.75 45.5887C273.417 46.0554 272.909 46.2887 272.225 46.2887C271.909 46.2887 271.592 46.2387 271.275 46.1387C270.975 46.0387 270.734 45.8554 270.55 45.5887L262.925 34.7387V49.2887C262.925 50.9887 262.225 51.8387 260.825 51.8387ZM301.966 51.8387C301.249 51.8387 300.682 51.6304 300.266 51.2137C299.866 50.8137 299.666 50.2554 299.666 49.5387V23.2887H292.466C291.716 23.2887 291.116 23.1054 290.666 22.7387C290.232 22.3554 290.016 21.8387 290.016 21.1887C290.016 20.5387 290.232 20.0304 290.666 19.6637C291.116 19.2804 291.716 19.0887 292.466 19.0887H311.516C313.149 19.0887 313.966 19.7887 313.966 21.1887C313.966 22.5887 313.149 23.2887 311.516 23.2887H304.416V49.5387C304.416 50.222 304.191 50.772 303.741 51.1887C303.291 51.622 302.699 51.8387 301.966 51.8387ZM330.692 51.4887C327.492 51.4887 324.942 51.2054 323.042 50.6387C321.159 50.0554 319.801 49.097 318.967 47.7637C318.151 46.4137 317.742 44.5887 317.742 42.2887V37.0387C317.742 34.7387 318.151 32.922 318.967 31.5887C319.801 30.2387 321.159 29.2804 323.042 28.7137C324.942 28.1304 327.492 27.8387 330.692 27.8387H332.142C335.342 27.8387 337.884 28.1304 339.767 28.7137C341.651 29.297 343.001 30.2637 343.817 31.6137C344.634 32.947 345.042 34.7554 345.042 37.0387V39.7387H321.942V42.1387C321.942 43.6054 322.142 44.7137 322.542 45.4637C322.959 46.197 323.792 46.6887 325.042 46.9387C326.292 47.172 328.176 47.2887 330.692 47.2887H338.392C339.176 47.2887 339.692 47.147 339.942 46.8637C340.209 46.5804 340.342 46.022 340.342 45.1887C340.342 44.3554 340.526 43.7054 340.892 43.2387C341.276 42.772 341.801 42.5387 342.467 42.5387C343.151 42.5554 343.667 42.8137 344.017 43.3137C344.367 43.797 344.542 44.4887 344.542 45.3887C344.542 46.772 344.334 47.922 343.917 48.8387C343.501 49.7387 342.859 50.4054 341.992 50.8387C341.142 51.272 340.059 51.4887 338.742 51.4887H330.692ZM321.967 35.5387H340.817C340.634 34.072 340.042 33.1387 339.042 32.7387C338.442 32.5054 337.551 32.3304 336.367 32.2137C335.201 32.097 333.792 32.0387 332.142 32.0387H330.692C328.892 32.0387 327.401 32.1054 326.217 32.2387C325.051 32.3554 324.192 32.5387 323.642 32.7887C322.642 33.2054 322.084 34.122 321.967 35.5387ZM351.711 52.0387C351.061 52.0387 350.511 51.847 350.061 51.4637C349.627 51.097 349.411 50.622 349.411 50.0387C349.411 49.7387 349.469 49.4637 349.586 49.2137C349.702 48.947 349.869 48.7054 350.086 48.4887L358.436 39.6887L350.086 30.8387C349.636 30.3387 349.411 29.8054 349.411 29.2387C349.411 28.6554 349.619 28.1887 350.036 27.8387C350.469 27.472 351.011 27.2887 351.661 27.2887C352.361 27.2887 352.919 27.522 353.336 27.9887L361.561 36.9887L369.761 27.9887C370.211 27.522 370.761 27.2887 371.411 27.2887C372.044 27.2887 372.569 27.472 372.986 27.8387C373.402 28.1887 373.611 28.6554 373.611 29.2387C373.611 29.8054 373.386 30.3387 372.936 30.8387L364.586 39.6887L372.911 48.4887C373.127 48.7054 373.294 48.947 373.411 49.2137C373.544 49.4637 373.611 49.7387 373.611 50.0387C373.611 50.6054 373.394 51.0804 372.961 51.4637C372.527 51.847 371.994 52.0387 371.361 52.0387C370.694 52.0387 370.152 51.8054 369.736 51.3387L361.561 42.3387L353.311 51.3387C352.877 51.8054 352.344 52.0387 351.711 52.0387Z" fill="black"/>
<path d="M90.9603 60.7924C90.9603 61.4591 90.9603 62.1258 90.9603 62.7924C95.727 62.7758 100.494 62.7591 105.26 62.7424C191.06 62.4424 276.86 62.1424 362.66 61.8424C367.427 61.8258 372.194 61.8091 376.96 61.7924C372.194 61.7758 367.427 61.7591 362.66 61.7424C276.86 61.4424 191.06 61.1424 105.26 60.8424C100.494 60.8258 95.727 60.8091 90.9603 60.7924Z" fill="#73C27E"/>
<path d="M99.771 80.4877C99.3263 80.4877 99.0158 80.3114 98.8395 79.9587C98.6708 79.606 98.7322 79.2495 99.0235 78.8892L104.21 72.2077V73.5877L99.012 66.8947C98.828 66.6647 98.7398 66.4232 98.7475 66.1702C98.7628 65.9095 98.8548 65.691 99.0235 65.5147C99.1998 65.3307 99.4413 65.2387 99.748 65.2387C99.9167 65.2387 100.07 65.2962 100.208 65.4112C100.346 65.5185 100.476 65.6565 100.599 65.8252L105.475 72.2537H104.417L109.316 65.8252C109.454 65.6412 109.596 65.5032 109.742 65.4112C109.895 65.3115 110.083 65.2617 110.305 65.2617C110.558 65.2617 110.761 65.346 110.915 65.5147C111.076 65.6834 111.16 65.8942 111.168 66.1472C111.183 66.3925 111.091 66.6379 110.892 66.8832L105.705 73.5877V72.2077L110.892 78.8777C111.083 79.0924 111.171 79.3262 111.156 79.5792C111.148 79.8245 111.056 80.0354 110.88 80.2117C110.704 80.3957 110.458 80.4877 110.144 80.4877C109.891 80.4877 109.615 80.3152 109.316 79.9702L104.417 73.5187H105.475L100.599 79.9702C100.338 80.3152 100.062 80.4877 99.771 80.4877ZM124.208 80.4877C123.564 80.4877 123.242 80.089 123.242 79.2917V72.1847L115.341 80.3267H113.536V70.4137C113.536 69.6624 113.858 69.2867 114.502 69.2867C115.146 69.2867 115.468 69.6854 115.468 70.4827V77.6817L123.437 69.4477H125.174V79.3607C125.174 80.112 124.852 80.4877 124.208 80.4877ZM129.325 80.4877C128.681 80.4877 128.359 80.1197 128.359 79.3837V70.4137C128.359 69.6624 128.666 69.2867 129.279 69.2867C129.655 69.2867 129.985 69.4822 130.268 69.8732L134.523 75.8302L138.801 69.8732C139.077 69.4822 139.399 69.2867 139.767 69.2867C140.396 69.2867 140.71 69.6624 140.71 70.4137V79.3837C140.71 80.1197 140.388 80.4877 139.744 80.4877C139.1 80.4877 138.778 80.0967 138.778 79.3147V72.6217L135.271 77.6127C135.118 77.8274 134.884 77.9347 134.569 77.9347C134.424 77.9347 134.278 77.9117 134.132 77.8657C133.994 77.8197 133.883 77.7354 133.799 77.6127L130.291 72.6217V79.3147C130.291 80.0967 129.969 80.4877 129.325 80.4877ZM154.575 80.4877C153.931 80.4877 153.609 80.089 153.609 79.2917V72.1847L145.708 80.3267H143.903V70.4137C143.903 69.6624 144.225 69.2867 144.869 69.2867C145.513 69.2867 145.835 69.6854 145.835 70.4827V77.6817L153.804 69.4477H155.541V79.3607C155.541 80.112 155.219 80.4877 154.575 80.4877ZM169.077 80.4877C168.417 80.4877 168.088 80.1197 168.088 79.3837V76.6007C167.152 77.2754 165.949 77.6127 164.477 77.6127H163.672C162.33 77.6127 161.253 77.4747 160.44 77.1987C159.635 76.915 159.052 76.4589 158.692 75.8302C158.332 75.1939 158.152 74.3544 158.152 73.3117V70.3907C158.152 69.6547 158.474 69.2867 159.118 69.2867C159.762 69.2867 160.084 69.6547 160.084 70.3907V73.2427C160.084 73.925 160.176 74.4425 160.36 74.7952C160.544 75.1402 160.892 75.374 161.406 75.4967C161.92 75.6194 162.675 75.6807 163.672 75.6807H164.477C165.688 75.6807 166.593 75.3817 167.191 74.7837C167.789 74.1857 168.088 73.281 168.088 72.0697V70.3907C168.088 69.6547 168.41 69.2867 169.054 69.2867C169.698 69.2867 170.02 69.6547 170.02 70.3907V79.3607C170.02 80.112 169.705 80.4877 169.077 80.4877ZM178.826 80.3267C177.354 80.3267 176.181 80.1964 175.307 79.9357C174.441 79.6674 173.816 79.2265 173.433 78.6132C173.057 77.9922 172.869 77.1527 172.869 76.0947V73.6797C172.869 72.6217 173.057 71.786 173.433 71.1727C173.816 70.5517 174.441 70.1109 175.307 69.8502C176.181 69.5819 177.354 69.4477 178.826 69.4477H179.493C180.965 69.4477 182.135 69.5819 183.001 69.8502C183.867 70.1185 184.488 70.5632 184.864 71.1842C185.24 71.7975 185.427 72.6294 185.427 73.6797V74.9217H174.801V76.0257C174.801 76.7004 174.893 77.2102 175.077 77.5552C175.269 77.8925 175.652 78.1187 176.227 78.2337C176.802 78.341 177.669 78.3947 178.826 78.3947H182.368C182.729 78.3947 182.966 78.3295 183.081 78.1992C183.204 78.0689 183.265 77.812 183.265 77.4287C183.265 77.0454 183.35 76.7464 183.518 76.5317C183.695 76.317 183.936 76.2097 184.243 76.2097C184.557 76.2174 184.795 76.3362 184.956 76.5662C185.117 76.7885 185.197 77.1067 185.197 77.5207C185.197 78.157 185.102 78.686 184.91 79.1077C184.718 79.5217 184.423 79.8284 184.024 80.0277C183.633 80.227 183.135 80.3267 182.529 80.3267H178.826ZM174.813 72.9897H183.484C183.4 72.315 183.127 71.8857 182.667 71.7017C182.391 71.5944 181.981 71.5139 181.437 71.4602C180.9 71.4065 180.252 71.3797 179.493 71.3797H178.826C177.998 71.3797 177.312 71.4104 176.768 71.4717C176.231 71.5254 175.836 71.6097 175.583 71.7247C175.123 71.9164 174.867 72.338 174.813 72.9897ZM193.808 80.3267C192.336 80.3267 191.163 80.1964 190.289 79.9357C189.423 79.6674 188.798 79.2265 188.414 78.6132C188.039 77.9922 187.851 77.1527 187.851 76.0947V73.6797C187.851 72.6217 188.039 71.786 188.414 71.1727C188.798 70.5517 189.423 70.1109 190.289 69.8502C191.163 69.5819 192.336 69.4477 193.808 69.4477H197.051C197.657 69.4477 198.155 69.5512 198.546 69.7582C198.945 69.9575 199.24 70.268 199.431 70.6897C199.623 71.1037 199.719 71.6327 199.719 72.2767C199.719 72.6907 199.635 73.0089 199.466 73.2312C199.305 73.4535 199.067 73.5647 198.753 73.5647C198.446 73.5647 198.209 73.4612 198.04 73.2542C197.871 73.0395 197.787 72.7444 197.787 72.3687C197.787 71.9854 197.726 71.7247 197.603 71.5867C197.48 71.4487 197.243 71.3797 196.89 71.3797H193.808C192.65 71.3797 191.784 71.4372 191.209 71.5522C190.634 71.6595 190.251 71.8819 190.059 72.2192C189.875 72.5565 189.783 73.0664 189.783 73.7487V76.0257C189.783 76.7004 189.875 77.2102 190.059 77.5552C190.251 77.8925 190.634 78.1187 191.209 78.2337C191.784 78.341 192.65 78.3947 193.808 78.3947H196.89C197.25 78.3947 197.488 78.3295 197.603 78.1992C197.726 78.0689 197.787 77.812 197.787 77.4287C197.787 77.0684 197.867 76.777 198.028 76.5547C198.189 76.3247 198.423 76.2097 198.73 76.2097C199.029 76.2097 199.267 76.3209 199.443 76.5432C199.627 76.7579 199.719 77.0837 199.719 77.5207C199.719 78.157 199.623 78.686 199.431 79.1077C199.24 79.5217 198.945 79.8284 198.546 80.0277C198.155 80.227 197.657 80.3267 197.051 80.3267H193.808ZM203.468 80.4877C203.185 80.4877 202.955 80.388 202.778 80.1887C202.61 79.9894 202.525 79.7364 202.525 79.4297V70.3447C202.525 70.0227 202.617 69.7659 202.801 69.5742C202.985 69.3825 203.231 69.2867 203.537 69.2867C203.813 69.2867 204.036 69.3864 204.204 69.5857C204.373 69.7774 204.457 70.0304 204.457 70.3447V73.9097H206.665C206.819 73.9097 207.003 73.7947 207.217 73.5647C207.44 73.3347 207.754 72.9169 208.16 72.3112C208.475 71.8589 208.831 71.4027 209.23 70.9427C209.636 70.4827 210.154 70.0879 210.782 69.7582C211.419 69.4285 212.124 69.2637 212.898 69.2637C213.259 69.2637 213.546 69.348 213.761 69.5167C213.983 69.6854 214.094 69.923 214.094 70.2297C214.094 70.5517 213.991 70.7932 213.784 70.9542C213.585 71.1152 213.289 71.1957 212.898 71.1957C212.5 71.1957 212.109 71.349 211.725 71.6557C211.35 71.9624 210.89 72.5029 210.345 73.2772C210.207 73.4689 210.073 73.649 209.943 73.8177C209.82 73.9787 209.701 74.1282 209.586 74.2662C209.479 74.3965 209.372 74.5154 209.264 74.6227C209.862 74.8834 210.403 75.2437 210.886 75.7037C211.377 76.1637 211.706 76.6314 211.875 77.1067C212.059 77.582 212.239 77.9424 212.415 78.1877C212.592 78.433 212.753 78.5557 212.898 78.5557C213.259 78.5557 213.546 78.6439 213.761 78.8202C213.983 78.9965 214.094 79.2304 214.094 79.5217C214.094 80.1657 213.696 80.4877 212.898 80.4877C212.362 80.4877 211.898 80.4072 211.507 80.2462C211.116 80.0852 210.805 79.8399 210.575 79.5102C210.345 79.1959 210.158 78.8892 210.012 78.5902C209.866 78.2912 209.698 77.9884 209.506 77.6817C209.314 77.3674 209.034 77.0492 208.666 76.7272C208.03 76.1369 206.934 75.8417 205.377 75.8417H204.457V79.4527C204.457 79.767 204.369 80.0162 204.193 80.2002C204.017 80.3919 203.775 80.4877 203.468 80.4877ZM226.11 80.4877C225.918 80.4877 225.761 80.4302 225.638 80.3152C225.515 80.2079 225.423 79.974 225.362 79.6137C225.308 79.2534 225.282 78.7014 225.282 77.9577L225.535 78.5557C225.052 79.2227 224.446 79.6865 223.718 79.9472C222.997 80.2002 222.146 80.3267 221.165 80.3267H219.026C218.19 80.3267 217.508 80.0507 216.979 79.4987C216.457 78.939 216.197 78.0957 216.197 76.9687C216.197 76.2634 216.312 75.6692 216.542 75.1862C216.772 74.6955 217.128 74.3007 217.611 74.0017C218.094 73.695 218.711 73.4727 219.463 73.3347C220.214 73.1967 221.111 73.1277 222.154 73.1277H226.041L225.167 73.9097V72.2077C225.167 71.8704 225.109 71.648 224.994 71.5407C224.887 71.4334 224.645 71.3797 224.27 71.3797H221.027C220.252 71.3797 219.658 71.3989 219.244 71.4372C218.838 71.4755 218.554 71.5522 218.393 71.6672C218.232 71.7745 218.144 71.9317 218.129 72.1387C218.098 72.5374 218.025 72.8325 217.91 73.0242C217.795 73.2159 217.546 73.3117 217.163 73.3117C216.519 73.3117 216.197 72.8977 216.197 72.0697C216.197 71.1574 216.576 70.4942 217.335 70.0802C218.094 69.6585 219.271 69.4477 220.866 69.4477H224.431C225.412 69.4477 226.102 69.6815 226.501 70.1492C226.899 70.6169 227.099 71.4257 227.099 72.5757V79.3837C227.099 80.1197 226.769 80.4877 226.11 80.4877ZM219.095 78.4867H221.165C222.614 78.4867 223.641 78.1954 224.247 77.6127C224.86 77.0224 225.167 76.0947 225.167 74.8297L225.305 74.9677H222.154C221.142 74.9677 220.34 75.0175 219.75 75.1172C219.167 75.2092 218.75 75.3932 218.497 75.6692C218.251 75.9452 218.129 76.3554 218.129 76.8997C218.129 77.3904 218.213 77.7775 218.382 78.0612C218.558 78.3449 218.796 78.4867 219.095 78.4867ZM230.244 80.5107C229.447 80.5107 229.048 80.1887 229.048 79.5447C229.048 78.9007 229.447 78.5787 230.244 78.5787C230.52 78.5787 230.773 78.4522 231.003 78.1992C231.241 77.9385 231.409 77.6587 231.509 77.3597C231.647 76.9457 231.77 76.616 231.877 76.3707C231.984 76.1254 232.145 75.8724 232.36 75.6117C231.685 75.397 231.191 75.0597 230.876 74.5997C230.562 74.1397 230.405 73.5187 230.405 72.7367C230.405 71.8857 230.577 71.2225 230.922 70.7472C231.275 70.2719 231.873 69.9384 232.716 69.7467C233.567 69.5474 234.737 69.4477 236.224 69.4477H239.766C240.042 69.4477 240.264 69.5435 240.433 69.7352C240.602 69.9192 240.686 70.1684 240.686 70.4827V79.5447C240.686 79.8284 240.594 80.0545 240.41 80.2232C240.234 80.3995 239.996 80.4877 239.697 80.4877C239.429 80.4877 239.202 80.3957 239.018 80.2117C238.842 80.0354 238.754 79.813 238.754 79.5447V76.0257H235.856C235.296 76.0257 234.867 76.064 234.568 76.1407C234.269 76.2174 234.039 76.3707 233.878 76.6007C233.725 76.8307 233.579 77.1795 233.441 77.6472C233.196 78.4829 232.77 79.169 232.164 79.7057C231.566 80.2424 230.926 80.5107 230.244 80.5107ZM235.465 74.0937H238.754V71.3797H235.465C234.775 71.3797 234.196 71.3989 233.728 71.4372C233.268 71.4679 232.92 71.5752 232.682 71.7592C232.452 71.9355 232.337 72.2384 232.337 72.6677C232.337 73.143 232.456 73.4804 232.693 73.6797C232.931 73.879 233.28 73.9979 233.74 74.0362C234.208 74.0745 234.783 74.0937 235.465 74.0937ZM252.029 80.4877C251.745 80.4877 251.515 80.388 251.339 80.1887C251.17 79.9894 251.086 79.7364 251.086 79.4297V70.3447C251.086 70.0227 251.178 69.7659 251.362 69.5742C251.546 69.3825 251.791 69.2867 252.098 69.2867C252.374 69.2867 252.596 69.3864 252.765 69.5857C252.934 69.7774 253.018 70.0304 253.018 70.3447V73.9097H255.226C255.379 73.9097 255.563 73.7947 255.778 73.5647C256 73.3347 256.315 72.9169 256.721 72.3112C257.035 71.8589 257.392 71.4027 257.791 70.9427C258.197 70.4827 258.714 70.0879 259.343 69.7582C259.979 69.4285 260.685 69.2637 261.459 69.2637C261.819 69.2637 262.107 69.348 262.322 69.5167C262.544 69.6854 262.655 69.923 262.655 70.2297C262.655 70.5517 262.552 70.7932 262.345 70.9542C262.145 71.1152 261.85 71.1957 261.459 71.1957C261.06 71.1957 260.669 71.349 260.286 71.6557C259.91 71.9624 259.45 72.5029 258.906 73.2772C258.768 73.4689 258.634 73.649 258.504 73.8177C258.381 73.9787 258.262 74.1282 258.147 74.2662C258.04 74.3965 257.932 74.5154 257.825 74.6227C258.423 74.8834 258.964 75.2437 259.447 75.7037C259.937 76.1637 260.267 76.6314 260.436 77.1067C260.62 77.582 260.8 77.9424 260.976 78.1877C261.152 78.433 261.313 78.5557 261.459 78.5557C261.819 78.5557 262.107 78.6439 262.322 78.8202C262.544 78.9965 262.655 79.2304 262.655 79.5217C262.655 80.1657 262.256 80.4877 261.459 80.4877C260.922 80.4877 260.459 80.4072 260.068 80.2462C259.677 80.0852 259.366 79.8399 259.136 79.5102C258.906 79.1959 258.718 78.8892 258.573 78.5902C258.427 78.2912 258.258 77.9884 258.067 77.6817C257.875 77.3674 257.595 77.0492 257.227 76.7272C256.591 76.1369 255.494 75.8417 253.938 75.8417H253.018V79.4527C253.018 79.767 252.93 80.0162 252.754 80.2002C252.577 80.3919 252.336 80.4877 252.029 80.4877ZM270.714 80.3267C269.242 80.3267 268.069 80.1964 267.195 79.9357C266.329 79.6674 265.704 79.2265 265.321 78.6132C264.945 77.9922 264.757 77.1527 264.757 76.0947V73.6797C264.757 72.6217 264.945 71.786 265.321 71.1727C265.704 70.5517 266.329 70.1109 267.195 69.8502C268.069 69.5819 269.242 69.4477 270.714 69.4477H271.381C272.853 69.4477 274.022 69.5819 274.889 69.8502C275.755 70.1185 276.376 70.5632 276.752 71.1842C277.127 71.7975 277.315 72.6294 277.315 73.6797V76.0947C277.315 77.145 277.127 77.9807 276.752 78.6017C276.376 79.215 275.755 79.6559 274.889 79.9242C274.022 80.1925 272.853 80.3267 271.381 80.3267H270.714ZM270.714 78.3947H271.381C272.531 78.3947 273.39 78.341 273.957 78.2337C274.532 78.1187 274.912 77.8925 275.096 77.5552C275.287 77.2102 275.383 76.7004 275.383 76.0257V73.7487C275.383 73.0664 275.287 72.5565 275.096 72.2192C274.912 71.8819 274.532 71.6595 273.957 71.5522C273.39 71.4372 272.531 71.3797 271.381 71.3797H270.714C269.557 71.3797 268.69 71.4372 268.115 71.5522C267.54 71.6595 267.157 71.8819 266.965 72.2192C266.781 72.5565 266.689 73.0664 266.689 73.7487V76.0257C266.689 76.7004 266.781 77.2102 266.965 77.5552C267.157 77.8925 267.54 78.1187 268.115 78.2337C268.69 78.341 269.557 78.3947 270.714 78.3947ZM281.139 80.4877C280.495 80.4877 280.173 80.1197 280.173 79.3837V70.4137C280.173 69.6624 280.48 69.2867 281.093 69.2867C281.469 69.2867 281.798 69.4822 282.082 69.8732L286.337 75.8302L290.615 69.8732C290.891 69.4822 291.213 69.2867 291.581 69.2867C292.21 69.2867 292.524 69.6624 292.524 70.4137V79.3837C292.524 80.1197 292.202 80.4877 291.558 80.4877C290.914 80.4877 290.592 80.0967 290.592 79.3147V72.6217L287.084 77.6127C286.931 77.8274 286.697 77.9347 286.383 77.9347C286.237 77.9347 286.092 77.9117 285.946 77.8657C285.808 77.8197 285.697 77.7354 285.612 77.6127L282.105 72.6217V79.3147C282.105 80.0967 281.783 80.4877 281.139 80.4877ZM296.682 80.4877C296.038 80.4877 295.716 80.1197 295.716 79.3837V69.4477H307.354V79.3837C307.354 80.1197 307.032 80.4877 306.388 80.4877C305.744 80.4877 305.422 80.1197 305.422 79.3837V71.3797H297.648V79.3837C297.648 80.1197 297.326 80.4877 296.682 80.4877ZM320.131 80.4877C319.939 80.4877 319.782 80.4302 319.66 80.3152C319.537 80.2079 319.445 79.974 319.384 79.6137C319.33 79.2534 319.303 78.7014 319.303 77.9577L319.556 78.5557C319.073 79.2227 318.467 79.6865 317.739 79.9472C317.018 80.2002 316.167 80.3267 315.186 80.3267H313.047C312.211 80.3267 311.529 80.0507 311 79.4987C310.479 78.939 310.218 78.0957 310.218 76.9687C310.218 76.2634 310.333 75.6692 310.563 75.1862C310.793 74.6955 311.15 74.3007 311.633 74.0017C312.116 73.695 312.733 73.4727 313.484 73.3347C314.235 73.1967 315.132 73.1277 316.175 73.1277H320.062L319.188 73.9097V72.2077C319.188 71.8704 319.131 71.648 319.016 71.5407C318.908 71.4334 318.667 71.3797 318.291 71.3797H315.048C314.274 71.3797 313.68 71.3989 313.266 71.4372C312.859 71.4755 312.576 71.5522 312.415 71.6672C312.254 71.7745 312.165 71.9317 312.15 72.1387C312.119 72.5374 312.047 72.8325 311.932 73.0242C311.817 73.2159 311.567 73.3117 311.184 73.3117C310.54 73.3117 310.218 72.8977 310.218 72.0697C310.218 71.1574 310.598 70.4942 311.357 70.0802C312.116 69.6585 313.292 69.4477 314.887 69.4477H318.452C319.433 69.4477 320.123 69.6815 320.522 70.1492C320.921 70.6169 321.12 71.4257 321.12 72.5757V79.3837C321.12 80.1197 320.79 80.4877 320.131 80.4877ZM313.116 78.4867H315.186C316.635 78.4867 317.662 78.1954 318.268 77.6127C318.881 77.0224 319.188 76.0947 319.188 74.8297L319.326 74.9677H316.175C315.163 74.9677 314.362 75.0175 313.772 75.1172C313.189 75.2092 312.771 75.3932 312.518 75.6692C312.273 75.9452 312.15 76.3554 312.15 76.8997C312.15 77.3904 312.234 77.7775 312.403 78.0612C312.579 78.3449 312.817 78.4867 313.116 78.4867ZM325.162 80.4877C324.518 80.4877 324.196 80.1197 324.196 79.3837V70.4137C324.196 69.6624 324.503 69.2867 325.116 69.2867C325.791 69.2867 326.128 69.6624 326.128 70.4137V73.6107H333.902V70.4137C333.902 69.6624 334.224 69.2867 334.868 69.2867C335.512 69.2867 335.834 69.6624 335.834 70.4137V79.3837C335.834 80.1197 335.512 80.4877 334.868 80.4877C334.224 80.4877 333.902 80.1197 333.902 79.3837V75.5427H326.128V79.3837C326.128 80.1197 325.806 80.4877 325.162 80.4877ZM349.693 80.4877C349.049 80.4877 348.727 80.089 348.727 79.2917V72.1847L340.827 80.3267H339.021V70.4137C339.021 69.6624 339.343 69.2867 339.987 69.2867C340.631 69.2867 340.953 69.6854 340.953 70.4827V77.6817L348.923 69.4477H350.659V79.3607C350.659 80.112 350.337 80.4877 349.693 80.4877ZM353.914 80.5107C353.116 80.5107 352.718 80.1887 352.718 79.5447C352.718 78.9007 353.116 78.5787 353.914 78.5787C354.19 78.5787 354.443 78.4522 354.673 78.1992C354.91 77.9385 355.079 77.6587 355.179 77.3597C355.317 76.9457 355.439 76.616 355.547 76.3707C355.654 76.1254 355.815 75.8724 356.03 75.6117C355.355 75.397 354.861 75.0597 354.546 74.5997C354.232 74.1397 354.075 73.5187 354.075 72.7367C354.075 71.8857 354.247 71.2225 354.592 70.7472C354.945 70.2719 355.543 69.9384 356.386 69.7467C357.237 69.5474 358.406 69.4477 359.894 69.4477H363.436C363.712 69.4477 363.934 69.5435 364.103 69.7352C364.271 69.9192 364.356 70.1684 364.356 70.4827V79.5447C364.356 79.8284 364.264 80.0545 364.08 80.2232C363.903 80.3995 363.666 80.4877 363.367 80.4877C363.098 80.4877 362.872 80.3957 362.688 80.2117C362.512 80.0354 362.424 79.813 362.424 79.5447V76.0257H359.526C358.966 76.0257 358.537 76.064 358.238 76.1407C357.939 76.2174 357.709 76.3707 357.548 76.6007C357.394 76.8307 357.249 77.1795 357.111 77.6472C356.865 78.4829 356.44 79.169 355.834 79.7057C355.236 80.2424 354.596 80.5107 353.914 80.5107ZM359.135 74.0937H362.424V71.3797H359.135C358.445 71.3797 357.866 71.3989 357.398 71.4372C356.938 71.4679 356.589 71.5752 356.352 71.7592C356.122 71.9355 356.007 72.2384 356.007 72.6677C356.007 73.143 356.126 73.4804 356.363 73.6797C356.601 73.879 356.95 73.9979 357.41 74.0362C357.877 74.0745 358.452 74.0937 359.135 74.0937Z" fill="black"/>
<g clip-path="url(#clip0_10_75)">
<mask id="path-5-outside-1_10_75" maskUnits="userSpaceOnUse" x="26.2176" y="14.0827" width="40.937" height="20.9801" fill="black">
<rect fill="white" x="26.2176" y="14.0827" width="40.937" height="20.9801"/>
<path d="M56.6629 19.1691C56.0709 18.9472 55.0889 18.9497 53.7997 19.178C52.4787 19.4113 50.9126 19.8567 49.2541 20.4701C48.7019 20.6748 48.7655 20.6569 48.7401 20.6161C48.7273 20.5981 48.6223 20.4742 48.5045 20.342C47.7628 19.5051 47.0243 18.851 46.1951 18.2955C45.923 18.1136 45.1367 17.7106 44.8566 17.6111C44.5908 17.5157 44.3075 17.4406 44.0465 17.3982C43.6183 17.3289 43.1313 17.3583 42.778 17.4773C42.1127 17.7008 41.6687 18.2531 41.4793 19.094C41.344 19.7017 41.3615 20.652 41.5254 21.4522C41.5461 21.5509 41.5588 21.6341 41.5525 21.6373C41.5461 21.6406 41.4618 21.6381 41.3647 21.6324C41.0304 21.6112 40.3126 21.5794 39.8909 21.5672C37.7804 21.5052 36.1077 21.5778 34.9251 21.7809C34.306 21.8877 33.9606 21.9881 33.636 22.1545C33.3049 22.3241 33.1999 22.4563 33.1903 22.714C33.184 22.8984 33.211 22.9987 33.3065 23.1292C33.5468 23.4645 34.2646 23.8698 35.2992 24.2548C36.2525 24.6113 37.5353 24.98 38.9932 25.3193C39.259 25.3805 39.4739 25.4335 39.4723 25.4376C39.4723 25.4408 39.337 25.5428 39.1715 25.6635C37.6165 26.79 36.6791 27.7761 36.4785 28.4923C36.4308 28.6603 36.4244 28.9556 36.4626 29.0992C36.6361 29.7379 37.6563 29.9605 39.3704 29.7297C40.0389 29.64 40.9286 29.4483 41.7912 29.2069C42.6809 28.9581 43.8237 28.578 44.7054 28.237C44.8248 28.1905 44.9266 28.153 44.9314 28.1522C44.9346 28.1522 45.0205 28.2484 45.1208 28.3667C45.872 29.2509 46.7378 30.034 47.5814 30.5951C47.8281 30.7575 48.6016 31.1604 48.8228 31.2395C49.5947 31.516 50.225 31.5634 50.8123 31.3896C50.9874 31.3374 51.2723 31.1898 51.4139 31.0797C51.7195 30.8398 51.9614 30.494 52.1158 30.0772C52.3482 29.4524 52.3991 28.547 52.2543 27.5967C52.232 27.4548 52.2097 27.3112 52.2001 27.2769C52.1938 27.2427 52.1922 27.2125 52.197 27.2101C52.2033 27.2068 52.2686 27.2092 52.3386 27.2141C52.5742 27.2321 53.4989 27.2737 53.9206 27.2859C55.256 27.3259 56.4258 27.3104 57.3887 27.2411C59.1156 27.1163 60.1708 26.8316 60.4477 26.414C60.4907 26.3495 60.5082 26.2834 60.513 26.1733C60.5273 25.8707 60.4 25.6717 60.0068 25.3838C59.8604 25.2744 59.7872 25.2337 59.4164 25.0436C58.9612 24.8103 58.7447 24.7173 58.1574 24.5028C57.2184 24.1602 55.8847 23.7785 54.5573 23.4718C54.3711 23.4286 54.2167 23.3919 54.2167 23.3902C54.2167 23.3886 54.3106 23.3193 54.4284 23.2361C55.969 22.1333 56.9574 21.1096 57.2057 20.3592C57.263 20.1879 57.2598 19.7441 57.2009 19.6161C57.1134 19.4309 56.9096 19.2612 56.6629 19.1691ZM56.5977 19.7572C56.7091 19.8828 56.7537 20.01 56.7266 20.1381C56.5993 20.7499 55.7144 21.6814 54.2756 22.7173C53.9986 22.9163 53.5896 23.201 53.5482 23.2222C53.5291 23.232 53.4846 23.2304 53.4225 23.2181C53.3684 23.2067 53.0485 23.1423 52.7095 23.0729C51.8261 22.8943 51.4505 22.8225 50.8187 22.7108L50.26 22.6121L50.1184 22.3926C49.9242 22.0941 49.7475 21.8453 49.4165 21.4081C49.2637 21.2042 49.1395 21.0362 49.1379 21.0337C49.1395 21.0231 50.1263 20.661 50.5608 20.5117C52.033 20.0084 53.3365 19.665 54.3376 19.519C54.7499 19.4578 55.0475 19.4342 55.4008 19.4342C55.6825 19.4334 55.7669 19.4391 55.9388 19.4684C56.0502 19.488 56.1791 19.5166 56.2268 19.5329C56.3558 19.5761 56.534 19.6838 56.5977 19.7572ZM59.5389 25.6252C59.757 25.7826 59.9177 25.9743 59.9177 26.0771C59.9161 26.1024 59.897 26.1513 59.8716 26.1856C59.6137 26.5543 58.5394 26.7867 56.7505 26.8601C55.9738 26.8911 54.5175 26.8773 53.4082 26.8259C52.9959 26.8071 52.0744 26.7525 52.0617 26.7459C52.0569 26.7435 52.041 26.6848 52.0251 26.6146C51.9455 26.2622 51.7561 25.6758 51.5985 25.2981L51.5094 25.0844L51.5874 25.0428C52.0553 24.7997 53.0596 24.1855 53.553 23.8397C53.6453 23.776 53.7265 23.723 53.7312 23.7222C53.7615 23.723 55.0825 24.0362 55.4533 24.1317C56.7632 24.4669 57.7914 24.7916 58.5824 25.1203C58.8832 25.2467 59.3702 25.5028 59.5389 25.6252ZM45.5314 18.4562C46.2667 18.895 47.0546 19.55 47.8026 20.3428C48.0445 20.6022 48.2594 20.8412 48.2578 20.8567C48.2578 20.8616 48.1448 20.9081 48.0047 20.9603C47.4954 21.1495 46.8859 21.4065 46.0678 21.7784C45.8322 21.8861 45.6333 21.9766 45.6253 21.9807C45.619 21.984 45.3755 21.9636 45.089 21.9342C44.4635 21.8698 44.099 21.838 43.0072 21.7499C42.5552 21.714 42.1796 21.6797 42.1748 21.6757C42.1716 21.6708 42.1382 21.5329 42.1 21.3698C41.8167 20.1055 41.8883 19.1519 42.3148 18.5124C42.4692 18.2816 42.5854 18.1699 42.8051 18.0475C42.9976 17.9374 43.1266 17.8925 43.3335 17.8599C43.9462 17.7612 44.7165 17.97 45.5314 18.4562ZM48.6493 21.3494C48.8499 21.5778 49.4069 22.3543 49.4419 22.4538C49.4515 22.4832 49.4308 22.4807 49.0409 22.413C48.8149 22.3739 48.3899 22.3111 48.0939 22.2736C46.9845 22.1341 46.6233 22.0859 46.6248 22.0786C46.6233 22.0598 47.8456 21.5378 48.2928 21.3641C48.4329 21.3102 48.5491 21.2654 48.5507 21.2646C48.5618 21.2588 48.5873 21.2817 48.6493 21.3494ZM52.8702 23.6627C52.5742 23.8698 52.0314 24.2035 51.5842 24.4506L51.312 24.6015L51.2404 24.4115C51.1465 24.161 50.8791 23.6309 50.6913 23.3242L50.5783 23.1406L51.2309 23.2532C52.0362 23.3935 52.9498 23.5648 52.9657 23.5778C52.9721 23.5827 52.9291 23.6211 52.8702 23.6627ZM49.8844 23.2304C49.9481 23.3429 50.0706 23.5558 50.155 23.7051C50.3873 24.1097 50.7645 24.9082 50.7359 24.9327C50.6786 24.98 50.104 25.2973 49.6616 25.524C49.399 25.6586 48.9008 25.9025 48.5538 26.0657C47.9522 26.3479 47.9188 26.3618 47.8599 26.3593C47.7262 26.3544 47.1071 26.2851 46.523 26.2109C45.9421 26.1366 45.2975 26.0428 44.3584 25.896L43.9367 25.8299L43.8635 25.7092C43.5117 25.1178 43.1695 24.4759 43.0056 24.0901C42.9467 23.9539 42.9451 23.9335 42.9833 23.9041C43.2539 23.6953 45.0317 22.7711 45.681 22.5003L45.7861 22.4579L46.41 22.5313C47.1055 22.6137 47.0816 22.6112 47.8997 22.7238C48.4361 22.798 49.7189 23.002 49.7555 23.0191C49.7634 23.0232 49.8207 23.1178 49.8844 23.2304ZM51.1195 25.6709C51.25 26.0184 51.4553 26.6897 51.4362 26.7027C51.425 26.7084 50.9539 26.6791 50.5704 26.6472C50.3269 26.6269 49.0058 26.5061 48.9215 26.4955C48.9104 26.4947 49.251 26.3153 49.6791 26.0991C50.1088 25.8821 50.5799 25.6358 50.7295 25.5526C50.8775 25.4702 51.0049 25.405 51.0112 25.4082C51.0192 25.4123 51.0685 25.5306 51.1195 25.6709ZM44.1404 22.6651C43.7696 22.8502 43.3032 23.0941 43.1011 23.2059C42.899 23.3176 42.7287 23.4098 42.7223 23.4098C42.708 23.4106 42.4708 22.7768 42.3881 22.5142C42.3499 22.3951 42.3053 22.2581 42.291 22.2099C42.2751 22.1626 42.2655 22.1218 42.2703 22.1194C42.2957 22.108 44.777 22.3111 44.8089 22.3274C44.8104 22.3282 44.5096 22.4807 44.1404 22.6651ZM41.7053 22.236C41.7753 22.577 41.952 23.0901 42.1477 23.515C42.1939 23.6186 42.2305 23.7075 42.2289 23.7132C42.2257 23.7181 42.0761 23.8062 41.8931 23.9098C41.2644 24.263 40.5657 24.6945 40.1646 24.9751C40.0707 25.0412 39.9911 25.0966 39.988 25.0983C39.9689 25.1081 38.9693 24.8748 38.3025 24.7059C36.6409 24.2834 35.4742 23.8894 34.6896 23.4873C34.2535 23.2638 34.0211 23.0892 33.9033 22.8984C33.8461 22.807 33.8556 22.732 33.9384 22.6341C33.9861 22.5754 34.0179 22.5542 34.2248 22.4497C34.4429 22.338 34.4684 22.3282 34.6673 22.2768C35.288 22.1169 36.1427 22.0215 37.2695 21.9873C38.0144 21.9644 39.3593 21.9783 40.3461 22.0191C41.0511 22.0492 41.6671 22.0876 41.6734 22.1023C41.6766 22.1104 41.6909 22.17 41.7053 22.236ZM51.6208 27.4254C51.8102 28.2778 51.8516 28.9238 51.7545 29.4842C51.5969 30.3855 51.1258 30.9124 50.3619 31.043C50.2107 31.0682 49.8828 31.0666 49.7061 31.0397C49.2907 30.9753 48.7878 30.7828 48.3231 30.5087C47.6037 30.0845 46.8906 29.4907 46.1712 28.7158C45.9357 28.463 45.4964 27.9523 45.5076 27.9466C45.5123 27.9442 45.6174 27.905 45.7415 27.8593C46.2604 27.6668 46.9957 27.3536 47.645 27.0502L48.0795 26.8471L48.1973 26.8601C49.0154 26.9596 50.4399 27.0861 51.3423 27.1407C51.4728 27.1489 51.554 27.1595 51.5587 27.1701C51.5635 27.1791 51.5938 27.2941 51.6208 27.4254ZM42.4979 24.458C42.5361 24.5542 42.6157 24.7288 42.6793 24.8446C42.7414 24.9612 42.8385 25.1464 42.8942 25.2565C42.9499 25.3666 43.0311 25.511 43.0756 25.5763C43.117 25.6415 43.1472 25.6978 43.1409 25.7011C43.1075 25.7182 40.9079 25.312 40.7535 25.2606C40.7344 25.2541 40.7535 25.2329 40.8331 25.1758C41.1228 24.9718 41.6543 24.6488 42.1716 24.3625C42.4103 24.2304 42.4151 24.2279 42.4231 24.2548C42.4278 24.2703 42.4613 24.3609 42.4979 24.458ZM46.8668 26.8569C46.3988 27.0673 45.6444 27.3789 45.2497 27.5225L45.1335 27.5641L45.0412 27.4548C44.8168 27.1913 44.3377 26.5233 44.2725 26.3805L44.2518 26.3373L44.6879 26.4123C45.3086 26.52 46.5071 26.6888 46.9782 26.7362C47.0434 26.7419 47.096 26.7492 47.096 26.7508C47.096 26.7525 46.9909 26.7998 46.8668 26.8569ZM43.6072 26.3609C43.7934 26.7043 44.1245 27.1937 44.4412 27.5877C44.5176 27.684 44.5813 27.7672 44.5813 27.7737C44.5828 27.7876 44.3919 27.8626 43.7711 28.0926C41.3854 28.976 39.3497 29.4516 38.1704 29.4002C37.5894 29.3749 37.217 29.2378 37.0531 28.9874C36.964 28.8537 36.964 28.7329 37.0499 28.5127C37.26 27.9825 37.9396 27.2574 38.9916 26.4425C39.4564 26.0836 40.1535 25.5893 40.1949 25.5909C40.2076 25.5909 40.3604 25.6219 40.5339 25.6586C41.5254 25.8683 42.6061 26.0681 43.2141 26.1529C43.3717 26.175 43.5053 26.1962 43.5117 26.1978C43.5165 26.2002 43.5595 26.2745 43.6072 26.3609Z"/>
</mask>
<path d="M56.6629 19.1691C56.0709 18.9472 55.0889 18.9497 53.7997 19.178C52.4787 19.4113 50.9126 19.8567 49.2541 20.4701C48.7019 20.6748 48.7655 20.6569 48.7401 20.6161C48.7273 20.5981 48.6223 20.4742 48.5045 20.342C47.7628 19.5051 47.0243 18.851 46.1951 18.2955C45.923 18.1136 45.1367 17.7106 44.8566 17.6111C44.5908 17.5157 44.3075 17.4406 44.0465 17.3982C43.6183 17.3289 43.1313 17.3583 42.778 17.4773C42.1127 17.7008 41.6687 18.2531 41.4793 19.094C41.344 19.7017 41.3615 20.652 41.5254 21.4522C41.5461 21.5509 41.5588 21.6341 41.5525 21.6373C41.5461 21.6406 41.4618 21.6381 41.3647 21.6324C41.0304 21.6112 40.3126 21.5794 39.8909 21.5672C37.7804 21.5052 36.1077 21.5778 34.9251 21.7809C34.306 21.8877 33.9606 21.9881 33.636 22.1545C33.3049 22.3241 33.1999 22.4563 33.1903 22.714C33.184 22.8984 33.211 22.9987 33.3065 23.1292C33.5468 23.4645 34.2646 23.8698 35.2992 24.2548C36.2525 24.6113 37.5353 24.98 38.9932 25.3193C39.259 25.3805 39.4739 25.4335 39.4723 25.4376C39.4723 25.4408 39.337 25.5428 39.1715 25.6635C37.6165 26.79 36.6791 27.7761 36.4785 28.4923C36.4308 28.6603 36.4244 28.9556 36.4626 29.0992C36.6361 29.7379 37.6563 29.9605 39.3704 29.7297C40.0389 29.64 40.9286 29.4483 41.7912 29.2069C42.6809 28.9581 43.8237 28.578 44.7054 28.237C44.8248 28.1905 44.9266 28.153 44.9314 28.1522C44.9346 28.1522 45.0205 28.2484 45.1208 28.3667C45.872 29.2509 46.7378 30.034 47.5814 30.5951C47.8281 30.7575 48.6016 31.1604 48.8228 31.2395C49.5947 31.516 50.225 31.5634 50.8123 31.3896C50.9874 31.3374 51.2723 31.1898 51.4139 31.0797C51.7195 30.8398 51.9614 30.494 52.1158 30.0772C52.3482 29.4524 52.3991 28.547 52.2543 27.5967C52.232 27.4548 52.2097 27.3112 52.2001 27.2769C52.1938 27.2427 52.1922 27.2125 52.197 27.2101C52.2033 27.2068 52.2686 27.2092 52.3386 27.2141C52.5742 27.2321 53.4989 27.2737 53.9206 27.2859C55.256 27.3259 56.4258 27.3104 57.3887 27.2411C59.1156 27.1163 60.1708 26.8316 60.4477 26.414C60.4907 26.3495 60.5082 26.2834 60.513 26.1733C60.5273 25.8707 60.4 25.6717 60.0068 25.3838C59.8604 25.2744 59.7872 25.2337 59.4164 25.0436C58.9612 24.8103 58.7447 24.7173 58.1574 24.5028C57.2184 24.1602 55.8847 23.7785 54.5573 23.4718C54.3711 23.4286 54.2167 23.3919 54.2167 23.3902C54.2167 23.3886 54.3106 23.3193 54.4284 23.2361C55.969 22.1333 56.9574 21.1096 57.2057 20.3592C57.263 20.1879 57.2598 19.7441 57.2009 19.6161C57.1134 19.4309 56.9096 19.2612 56.6629 19.1691ZM56.5977 19.7572C56.7091 19.8828 56.7537 20.01 56.7266 20.1381C56.5993 20.7499 55.7144 21.6814 54.2756 22.7173C53.9986 22.9163 53.5896 23.201 53.5482 23.2222C53.5291 23.232 53.4846 23.2304 53.4225 23.2181C53.3684 23.2067 53.0485 23.1423 52.7095 23.0729C51.8261 22.8943 51.4505 22.8225 50.8187 22.7108L50.26 22.6121L50.1184 22.3926C49.9242 22.0941 49.7475 21.8453 49.4165 21.4081C49.2637 21.2042 49.1395 21.0362 49.1379 21.0337C49.1395 21.0231 50.1263 20.661 50.5608 20.5117C52.033 20.0084 53.3365 19.665 54.3376 19.519C54.7499 19.4578 55.0475 19.4342 55.4008 19.4342C55.6825 19.4334 55.7669 19.4391 55.9388 19.4684C56.0502 19.488 56.1791 19.5166 56.2268 19.5329C56.3558 19.5761 56.534 19.6838 56.5977 19.7572ZM59.5389 25.6252C59.757 25.7826 59.9177 25.9743 59.9177 26.0771C59.9161 26.1024 59.897 26.1513 59.8716 26.1856C59.6137 26.5543 58.5394 26.7867 56.7505 26.8601C55.9738 26.8911 54.5175 26.8773 53.4082 26.8259C52.9959 26.8071 52.0744 26.7525 52.0617 26.7459C52.0569 26.7435 52.041 26.6848 52.0251 26.6146C51.9455 26.2622 51.7561 25.6758 51.5985 25.2981L51.5094 25.0844L51.5874 25.0428C52.0553 24.7997 53.0596 24.1855 53.553 23.8397C53.6453 23.776 53.7265 23.723 53.7312 23.7222C53.7615 23.723 55.0825 24.0362 55.4533 24.1317C56.7632 24.4669 57.7914 24.7916 58.5824 25.1203C58.8832 25.2467 59.3702 25.5028 59.5389 25.6252ZM45.5314 18.4562C46.2667 18.895 47.0546 19.55 47.8026 20.3428C48.0445 20.6022 48.2594 20.8412 48.2578 20.8567C48.2578 20.8616 48.1448 20.9081 48.0047 20.9603C47.4954 21.1495 46.8859 21.4065 46.0678 21.7784C45.8322 21.8861 45.6333 21.9766 45.6253 21.9807C45.619 21.984 45.3755 21.9636 45.089 21.9342C44.4635 21.8698 44.099 21.838 43.0072 21.7499C42.5552 21.714 42.1796 21.6797 42.1748 21.6757C42.1716 21.6708 42.1382 21.5329 42.1 21.3698C41.8167 20.1055 41.8883 19.1519 42.3148 18.5124C42.4692 18.2816 42.5854 18.1699 42.8051 18.0475C42.9976 17.9374 43.1266 17.8925 43.3335 17.8599C43.9462 17.7612 44.7165 17.97 45.5314 18.4562ZM48.6493 21.3494C48.8499 21.5778 49.4069 22.3543 49.4419 22.4538C49.4515 22.4832 49.4308 22.4807 49.0409 22.413C48.8149 22.3739 48.3899 22.3111 48.0939 22.2736C46.9845 22.1341 46.6233 22.0859 46.6248 22.0786C46.6233 22.0598 47.8456 21.5378 48.2928 21.3641C48.4329 21.3102 48.5491 21.2654 48.5507 21.2646C48.5618 21.2588 48.5873 21.2817 48.6493 21.3494ZM52.8702 23.6627C52.5742 23.8698 52.0314 24.2035 51.5842 24.4506L51.312 24.6015L51.2404 24.4115C51.1465 24.161 50.8791 23.6309 50.6913 23.3242L50.5783 23.1406L51.2309 23.2532C52.0362 23.3935 52.9498 23.5648 52.9657 23.5778C52.9721 23.5827 52.9291 23.6211 52.8702 23.6627ZM49.8844 23.2304C49.9481 23.3429 50.0706 23.5558 50.155 23.7051C50.3873 24.1097 50.7645 24.9082 50.7359 24.9327C50.6786 24.98 50.104 25.2973 49.6616 25.524C49.399 25.6586 48.9008 25.9025 48.5538 26.0657C47.9522 26.3479 47.9188 26.3618 47.8599 26.3593C47.7262 26.3544 47.1071 26.2851 46.523 26.2109C45.9421 26.1366 45.2975 26.0428 44.3584 25.896L43.9367 25.8299L43.8635 25.7092C43.5117 25.1178 43.1695 24.4759 43.0056 24.0901C42.9467 23.9539 42.9451 23.9335 42.9833 23.9041C43.2539 23.6953 45.0317 22.7711 45.681 22.5003L45.7861 22.4579L46.41 22.5313C47.1055 22.6137 47.0816 22.6112 47.8997 22.7238C48.4361 22.798 49.7189 23.002 49.7555 23.0191C49.7634 23.0232 49.8207 23.1178 49.8844 23.2304ZM51.1195 25.6709C51.25 26.0184 51.4553 26.6897 51.4362 26.7027C51.425 26.7084 50.9539 26.6791 50.5704 26.6472C50.3269 26.6269 49.0058 26.5061 48.9215 26.4955C48.9104 26.4947 49.251 26.3153 49.6791 26.0991C50.1088 25.8821 50.5799 25.6358 50.7295 25.5526C50.8775 25.4702 51.0049 25.405 51.0112 25.4082C51.0192 25.4123 51.0685 25.5306 51.1195 25.6709ZM44.1404 22.6651C43.7696 22.8502 43.3032 23.0941 43.1011 23.2059C42.899 23.3176 42.7287 23.4098 42.7223 23.4098C42.708 23.4106 42.4708 22.7768 42.3881 22.5142C42.3499 22.3951 42.3053 22.2581 42.291 22.2099C42.2751 22.1626 42.2655 22.1218 42.2703 22.1194C42.2957 22.108 44.777 22.3111 44.8089 22.3274C44.8104 22.3282 44.5096 22.4807 44.1404 22.6651ZM41.7053 22.236C41.7753 22.577 41.952 23.0901 42.1477 23.515C42.1939 23.6186 42.2305 23.7075 42.2289 23.7132C42.2257 23.7181 42.0761 23.8062 41.8931 23.9098C41.2644 24.263 40.5657 24.6945 40.1646 24.9751C40.0707 25.0412 39.9911 25.0966 39.988 25.0983C39.9689 25.1081 38.9693 24.8748 38.3025 24.7059C36.6409 24.2834 35.4742 23.8894 34.6896 23.4873C34.2535 23.2638 34.0211 23.0892 33.9033 22.8984C33.8461 22.807 33.8556 22.732 33.9384 22.6341C33.9861 22.5754 34.0179 22.5542 34.2248 22.4497C34.4429 22.338 34.4684 22.3282 34.6673 22.2768C35.288 22.1169 36.1427 22.0215 37.2695 21.9873C38.0144 21.9644 39.3593 21.9783 40.3461 22.0191C41.0511 22.0492 41.6671 22.0876 41.6734 22.1023C41.6766 22.1104 41.6909 22.17 41.7053 22.236ZM51.6208 27.4254C51.8102 28.2778 51.8516 28.9238 51.7545 29.4842C51.5969 30.3855 51.1258 30.9124 50.3619 31.043C50.2107 31.0682 49.8828 31.0666 49.7061 31.0397C49.2907 30.9753 48.7878 30.7828 48.3231 30.5087C47.6037 30.0845 46.8906 29.4907 46.1712 28.7158C45.9357 28.463 45.4964 27.9523 45.5076 27.9466C45.5123 27.9442 45.6174 27.905 45.7415 27.8593C46.2604 27.6668 46.9957 27.3536 47.645 27.0502L48.0795 26.8471L48.1973 26.8601C49.0154 26.9596 50.4399 27.0861 51.3423 27.1407C51.4728 27.1489 51.554 27.1595 51.5587 27.1701C51.5635 27.1791 51.5938 27.2941 51.6208 27.4254ZM42.4979 24.458C42.5361 24.5542 42.6157 24.7288 42.6793 24.8446C42.7414 24.9612 42.8385 25.1464 42.8942 25.2565C42.9499 25.3666 43.0311 25.511 43.0756 25.5763C43.117 25.6415 43.1472 25.6978 43.1409 25.7011C43.1075 25.7182 40.9079 25.312 40.7535 25.2606C40.7344 25.2541 40.7535 25.2329 40.8331 25.1758C41.1228 24.9718 41.6543 24.6488 42.1716 24.3625C42.4103 24.2304 42.4151 24.2279 42.4231 24.2548C42.4278 24.2703 42.4613 24.3609 42.4979 24.458ZM46.8668 26.8569C46.3988 27.0673 45.6444 27.3789 45.2497 27.5225L45.1335 27.5641L45.0412 27.4548C44.8168 27.1913 44.3377 26.5233 44.2725 26.3805L44.2518 26.3373L44.6879 26.4123C45.3086 26.52 46.5071 26.6888 46.9782 26.7362C47.0434 26.7419 47.096 26.7492 47.096 26.7508C47.096 26.7525 46.9909 26.7998 46.8668 26.8569ZM43.6072 26.3609C43.7934 26.7043 44.1245 27.1937 44.4412 27.5877C44.5176 27.684 44.5813 27.7672 44.5813 27.7737C44.5828 27.7876 44.3919 27.8626 43.7711 28.0926C41.3854 28.976 39.3497 29.4516 38.1704 29.4002C37.5894 29.3749 37.217 29.2378 37.0531 28.9874C36.964 28.8537 36.964 28.7329 37.0499 28.5127C37.26 27.9825 37.9396 27.2574 38.9916 26.4425C39.4564 26.0836 40.1535 25.5893 40.1949 25.5909C40.2076 25.5909 40.3604 25.6219 40.5339 25.6586C41.5254 25.8683 42.6061 26.0681 43.2141 26.1529C43.3717 26.175 43.5053 26.1962 43.5117 26.1978C43.5165 26.2002 43.5595 26.2745 43.6072 26.3609Z" fill="#73C27E"/>
<path d="M56.6629 19.1691C56.0709 18.9472 55.0889 18.9497 53.7997 19.178C52.4787 19.4113 50.9126 19.8567 49.2541 20.4701C48.7019 20.6748 48.7655 20.6569 48.7401 20.6161C48.7273 20.5981 48.6223 20.4742 48.5045 20.342C47.7628 19.5051 47.0243 18.851 46.1951 18.2955C45.923 18.1136 45.1367 17.7106 44.8566 17.6111C44.5908 17.5157 44.3075 17.4406 44.0465 17.3982C43.6183 17.3289 43.1313 17.3583 42.778 17.4773C42.1127 17.7008 41.6687 18.2531 41.4793 19.094C41.344 19.7017 41.3615 20.652 41.5254 21.4522C41.5461 21.5509 41.5588 21.6341 41.5525 21.6373C41.5461 21.6406 41.4618 21.6381 41.3647 21.6324C41.0304 21.6112 40.3126 21.5794 39.8909 21.5672C37.7804 21.5052 36.1077 21.5778 34.9251 21.7809C34.306 21.8877 33.9606 21.9881 33.636 22.1545C33.3049 22.3241 33.1999 22.4563 33.1903 22.714C33.184 22.8984 33.211 22.9987 33.3065 23.1292C33.5468 23.4645 34.2646 23.8698 35.2992 24.2548C36.2525 24.6113 37.5353 24.98 38.9932 25.3193C39.259 25.3805 39.4739 25.4335 39.4723 25.4376C39.4723 25.4408 39.337 25.5428 39.1715 25.6635C37.6165 26.79 36.6791 27.7761 36.4785 28.4923C36.4308 28.6603 36.4244 28.9556 36.4626 29.0992C36.6361 29.7379 37.6563 29.9605 39.3704 29.7297C40.0389 29.64 40.9286 29.4483 41.7912 29.2069C42.6809 28.9581 43.8237 28.578 44.7054 28.237C44.8248 28.1905 44.9266 28.153 44.9314 28.1522C44.9346 28.1522 45.0205 28.2484 45.1208 28.3667C45.872 29.2509 46.7378 30.034 47.5814 30.5951C47.8281 30.7575 48.6016 31.1604 48.8228 31.2395C49.5947 31.516 50.225 31.5634 50.8123 31.3896C50.9874 31.3374 51.2723 31.1898 51.4139 31.0797C51.7195 30.8398 51.9614 30.494 52.1158 30.0772C52.3482 29.4524 52.3991 28.547 52.2543 27.5967C52.232 27.4548 52.2097 27.3112 52.2001 27.2769C52.1938 27.2427 52.1922 27.2125 52.197 27.2101C52.2033 27.2068 52.2686 27.2092 52.3386 27.2141C52.5742 27.2321 53.4989 27.2737 53.9206 27.2859C55.256 27.3259 56.4258 27.3104 57.3887 27.2411C59.1156 27.1163 60.1708 26.8316 60.4477 26.414C60.4907 26.3495 60.5082 26.2834 60.513 26.1733C60.5273 25.8707 60.4 25.6717 60.0068 25.3838C59.8604 25.2744 59.7872 25.2337 59.4164 25.0436C58.9612 24.8103 58.7447 24.7173 58.1574 24.5028C57.2184 24.1602 55.8847 23.7785 54.5573 23.4718C54.3711 23.4286 54.2167 23.3919 54.2167 23.3902C54.2167 23.3886 54.3106 23.3193 54.4284 23.2361C55.969 22.1333 56.9574 21.1096 57.2057 20.3592C57.263 20.1879 57.2598 19.7441 57.2009 19.6161C57.1134 19.4309 56.9096 19.2612 56.6629 19.1691ZM56.5977 19.7572C56.7091 19.8828 56.7537 20.01 56.7266 20.1381C56.5993 20.7499 55.7144 21.6814 54.2756 22.7173C53.9986 22.9163 53.5896 23.201 53.5482 23.2222C53.5291 23.232 53.4846 23.2304 53.4225 23.2181C53.3684 23.2067 53.0485 23.1423 52.7095 23.0729C51.8261 22.8943 51.4505 22.8225 50.8187 22.7108L50.26 22.6121L50.1184 22.3926C49.9242 22.0941 49.7475 21.8453 49.4165 21.4081C49.2637 21.2042 49.1395 21.0362 49.1379 21.0337C49.1395 21.0231 50.1263 20.661 50.5608 20.5117C52.033 20.0084 53.3365 19.665 54.3376 19.519C54.7499 19.4578 55.0475 19.4342 55.4008 19.4342C55.6825 19.4334 55.7669 19.4391 55.9388 19.4684C56.0502 19.488 56.1791 19.5166 56.2268 19.5329C56.3558 19.5761 56.534 19.6838 56.5977 19.7572ZM59.5389 25.6252C59.757 25.7826 59.9177 25.9743 59.9177 26.0771C59.9161 26.1024 59.897 26.1513 59.8716 26.1856C59.6137 26.5543 58.5394 26.7867 56.7505 26.8601C55.9738 26.8911 54.5175 26.8773 53.4082 26.8259C52.9959 26.8071 52.0744 26.7525 52.0617 26.7459C52.0569 26.7435 52.041 26.6848 52.0251 26.6146C51.9455 26.2622 51.7561 25.6758 51.5985 25.2981L51.5094 25.0844L51.5874 25.0428C52.0553 24.7997 53.0596 24.1855 53.553 23.8397C53.6453 23.776 53.7265 23.723 53.7312 23.7222C53.7615 23.723 55.0825 24.0362 55.4533 24.1317C56.7632 24.4669 57.7914 24.7916 58.5824 25.1203C58.8832 25.2467 59.3702 25.5028 59.5389 25.6252ZM45.5314 18.4562C46.2667 18.895 47.0546 19.55 47.8026 20.3428C48.0445 20.6022 48.2594 20.8412 48.2578 20.8567C48.2578 20.8616 48.1448 20.9081 48.0047 20.9603C47.4954 21.1495 46.8859 21.4065 46.0678 21.7784C45.8322 21.8861 45.6333 21.9766 45.6253 21.9807C45.619 21.984 45.3755 21.9636 45.089 21.9342C44.4635 21.8698 44.099 21.838 43.0072 21.7499C42.5552 21.714 42.1796 21.6797 42.1748 21.6757C42.1716 21.6708 42.1382 21.5329 42.1 21.3698C41.8167 20.1055 41.8883 19.1519 42.3148 18.5124C42.4692 18.2816 42.5854 18.1699 42.8051 18.0475C42.9976 17.9374 43.1266 17.8925 43.3335 17.8599C43.9462 17.7612 44.7165 17.97 45.5314 18.4562ZM48.6493 21.3494C48.8499 21.5778 49.4069 22.3543 49.4419 22.4538C49.4515 22.4832 49.4308 22.4807 49.0409 22.413C48.8149 22.3739 48.3899 22.3111 48.0939 22.2736C46.9845 22.1341 46.6233 22.0859 46.6248 22.0786C46.6233 22.0598 47.8456 21.5378 48.2928 21.3641C48.4329 21.3102 48.5491 21.2654 48.5507 21.2646C48.5618 21.2588 48.5873 21.2817 48.6493 21.3494ZM52.8702 23.6627C52.5742 23.8698 52.0314 24.2035 51.5842 24.4506L51.312 24.6015L51.2404 24.4115C51.1465 24.161 50.8791 23.6309 50.6913 23.3242L50.5783 23.1406L51.2309 23.2532C52.0362 23.3935 52.9498 23.5648 52.9657 23.5778C52.9721 23.5827 52.9291 23.6211 52.8702 23.6627ZM49.8844 23.2304C49.9481 23.3429 50.0706 23.5558 50.155 23.7051C50.3873 24.1097 50.7645 24.9082 50.7359 24.9327C50.6786 24.98 50.104 25.2973 49.6616 25.524C49.399 25.6586 48.9008 25.9025 48.5538 26.0657C47.9522 26.3479 47.9188 26.3618 47.8599 26.3593C47.7262 26.3544 47.1071 26.2851 46.523 26.2109C45.9421 26.1366 45.2975 26.0428 44.3584 25.896L43.9367 25.8299L43.8635 25.7092C43.5117 25.1178 43.1695 24.4759 43.0056 24.0901C42.9467 23.9539 42.9451 23.9335 42.9833 23.9041C43.2539 23.6953 45.0317 22.7711 45.681 22.5003L45.7861 22.4579L46.41 22.5313C47.1055 22.6137 47.0816 22.6112 47.8997 22.7238C48.4361 22.798 49.7189 23.002 49.7555 23.0191C49.7634 23.0232 49.8207 23.1178 49.8844 23.2304ZM51.1195 25.6709C51.25 26.0184 51.4553 26.6897 51.4362 26.7027C51.425 26.7084 50.9539 26.6791 50.5704 26.6472C50.3269 26.6269 49.0058 26.5061 48.9215 26.4955C48.9104 26.4947 49.251 26.3153 49.6791 26.0991C50.1088 25.8821 50.5799 25.6358 50.7295 25.5526C50.8775 25.4702 51.0049 25.405 51.0112 25.4082C51.0192 25.4123 51.0685 25.5306 51.1195 25.6709ZM44.1404 22.6651C43.7696 22.8502 43.3032 23.0941 43.1011 23.2059C42.899 23.3176 42.7287 23.4098 42.7223 23.4098C42.708 23.4106 42.4708 22.7768 42.3881 22.5142C42.3499 22.3951 42.3053 22.2581 42.291 22.2099C42.2751 22.1626 42.2655 22.1218 42.2703 22.1194C42.2957 22.108 44.777 22.3111 44.8089 22.3274C44.8104 22.3282 44.5096 22.4807 44.1404 22.6651ZM41.7053 22.236C41.7753 22.577 41.952 23.0901 42.1477 23.515C42.1939 23.6186 42.2305 23.7075 42.2289 23.7132C42.2257 23.7181 42.0761 23.8062 41.8931 23.9098C41.2644 24.263 40.5657 24.6945 40.1646 24.9751C40.0707 25.0412 39.9911 25.0966 39.988 25.0983C39.9689 25.1081 38.9693 24.8748 38.3025 24.7059C36.6409 24.2834 35.4742 23.8894 34.6896 23.4873C34.2535 23.2638 34.0211 23.0892 33.9033 22.8984C33.8461 22.807 33.8556 22.732 33.9384 22.6341C33.9861 22.5754 34.0179 22.5542 34.2248 22.4497C34.4429 22.338 34.4684 22.3282 34.6673 22.2768C35.288 22.1169 36.1427 22.0215 37.2695 21.9873C38.0144 21.9644 39.3593 21.9783 40.3461 22.0191C41.0511 22.0492 41.6671 22.0876 41.6734 22.1023C41.6766 22.1104 41.6909 22.17 41.7053 22.236ZM51.6208 27.4254C51.8102 28.2778 51.8516 28.9238 51.7545 29.4842C51.5969 30.3855 51.1258 30.9124 50.3619 31.043C50.2107 31.0682 49.8828 31.0666 49.7061 31.0397C49.2907 30.9753 48.7878 30.7828 48.3231 30.5087C47.6037 30.0845 46.8906 29.4907 46.1712 28.7158C45.9357 28.463 45.4964 27.9523 45.5076 27.9466C45.5123 27.9442 45.6174 27.905 45.7415 27.8593C46.2604 27.6668 46.9957 27.3536 47.645 27.0502L48.0795 26.8471L48.1973 26.8601C49.0154 26.9596 50.4399 27.0861 51.3423 27.1407C51.4728 27.1489 51.554 27.1595 51.5587 27.1701C51.5635 27.1791 51.5938 27.2941 51.6208 27.4254ZM42.4979 24.458C42.5361 24.5542 42.6157 24.7288 42.6793 24.8446C42.7414 24.9612 42.8385 25.1464 42.8942 25.2565C42.9499 25.3666 43.0311 25.511 43.0756 25.5763C43.117 25.6415 43.1472 25.6978 43.1409 25.7011C43.1075 25.7182 40.9079 25.312 40.7535 25.2606C40.7344 25.2541 40.7535 25.2329 40.8331 25.1758C41.1228 24.9718 41.6543 24.6488 42.1716 24.3625C42.4103 24.2304 42.4151 24.2279 42.4231 24.2548C42.4278 24.2703 42.4613 24.3609 42.4979 24.458ZM46.8668 26.8569C46.3988 27.0673 45.6444 27.3789 45.2497 27.5225L45.1335 27.5641L45.0412 27.4548C44.8168 27.1913 44.3377 26.5233 44.2725 26.3805L44.2518 26.3373L44.6879 26.4123C45.3086 26.52 46.5071 26.6888 46.9782 26.7362C47.0434 26.7419 47.096 26.7492 47.096 26.7508C47.096 26.7525 46.9909 26.7998 46.8668 26.8569ZM43.6072 26.3609C43.7934 26.7043 44.1245 27.1937 44.4412 27.5877C44.5176 27.684 44.5813 27.7672 44.5813 27.7737C44.5828 27.7876 44.3919 27.8626 43.7711 28.0926C41.3854 28.976 39.3497 29.4516 38.1704 29.4002C37.5894 29.3749 37.217 29.2378 37.0531 28.9874C36.964 28.8537 36.964 28.7329 37.0499 28.5127C37.26 27.9825 37.9396 27.2574 38.9916 26.4425C39.4564 26.0836 40.1535 25.5893 40.1949 25.5909C40.2076 25.5909 40.3604 25.6219 40.5339 25.6586C41.5254 25.8683 42.6061 26.0681 43.2141 26.1529C43.3717 26.175 43.5053 26.1962 43.5117 26.1978C43.5165 26.2002 43.5595 26.2745 43.6072 26.3609Z" stroke="#73C27E" stroke-width="0.4" mask="url(#path-5-outside-1_10_75)"/>
<path d="M47.5559 23.7189C47.1182 23.5876 46.5882 23.5835 46.1346 23.7083C45.95 23.7589 45.6826 23.8878 45.5776 23.9775C45.2768 24.2361 45.2433 24.5044 45.4868 24.7581C45.5553 24.8307 45.5919 24.856 45.7638 24.9441C45.9404 25.0346 45.9818 25.0509 46.1346 25.0885C46.7283 25.2361 47.3713 25.1823 47.8328 24.9457C48.1368 24.7899 48.2689 24.6146 48.2689 24.3699C48.2689 24.2622 48.2546 24.201 48.2148 24.1415C48.0938 23.9636 47.8519 23.8087 47.5559 23.7189Z" fill="#73C27E"/>
</g>
<path d="M46.1918 90.9707C46.209 90.9663 46.2229 90.9613 46.2299 90.959C46.2443 90.9541 46.2566 90.9495 46.2621 90.9472C46.2741 90.9424 46.2857 90.9374 46.2943 90.9336C46.3129 90.9252 46.3371 90.9139 46.3636 90.9013C46.4176 90.8758 46.4945 90.8386 46.5922 90.791C46.7883 90.6954 47.0745 90.5553 47.4388 90.375C48.1678 90.0143 49.2154 89.4921 50.5043 88.8486C53.0824 87.5614 56.6264 85.7857 60.5121 83.8291H60.5111C68.2814 79.9233 78.1857 74.9422 82.517 72.7636L88.1957 69.9091C89.7154 69.1452 90.6742 67.5896 90.6742 65.8886V26.3779C90.6741 24.6775 89.7157 23.1226 88.1967 22.3584L68.6244 12.5117C56.794 6.56215 46.926 1.59846 46.5463 1.41891L46.5472 1.41794C46.228 1.27111 45.8592 1.27764 45.5453 1.43552L23.7816 12.3799L3.93884 22.3584C2.41941 23.1225 1.46033 24.6781 1.46033 26.3789V65.8886C1.46033 67.5898 2.41987 69.1452 3.93982 69.9091L9.61755 72.7636C13.9566 74.942 23.8524 79.9229 31.6234 83.8291L37.1176 86.5898C38.8111 87.4392 40.3413 88.2051 41.6302 88.8486C42.9192 89.4922 43.9676 90.0143 44.6967 90.375C45.0609 90.5552 45.3462 90.6954 45.5424 90.791C45.6402 90.8387 45.7178 90.8758 45.7719 90.9013C45.7983 90.9139 45.8217 90.9253 45.8402 90.9336C45.8489 90.9374 45.8611 90.9423 45.8734 90.9472C45.879 90.9495 45.8905 90.9541 45.9047 90.959C45.9116 90.9613 45.9253 90.9662 45.9427 90.9707C45.9495 90.9724 46.0012 90.9863 46.0677 90.9863L46.1918 90.9707ZM45.9857 86C45.8332 85.9248 45.5908 85.8044 45.2201 85.6191C44.4788 85.2485 43.2271 84.6206 41.1615 83.583L16.5717 71.2246L8.24744 67.0332C7.06672 66.4386 6.32178 65.2292 6.32166 63.9072V28.3545C6.32166 27.0324 7.06669 25.8231 8.24744 25.2285L9.57361 24.5605H9.57263C11.5075 23.5891 20.544 19.0456 29.6517 14.4599H29.6527C34.2063 12.1707 38.3596 10.091 41.3832 8.58591C42.895 7.83335 44.124 7.22417 44.9789 6.80466C45.4064 6.59486 45.7397 6.43287 45.9672 6.32419C46.0189 6.29947 46.065 6.27848 46.1049 6.25974C46.1503 6.2821 46.2039 6.30713 46.264 6.33688C46.4973 6.45234 46.8373 6.62159 47.2728 6.83884C48.1441 7.27342 49.396 7.89957 50.9359 8.67087C54.0157 10.2135 58.2468 12.337 62.8881 14.6679C72.1615 19.3361 81.1805 23.8655 82.9271 24.7412L83.891 25.2275C85.0698 25.8229 85.8129 27.0309 85.8129 28.3515V63.9091C85.8129 65.2301 85.0693 66.439 83.89 67.0341L82.5687 67.7011V67.7021C80.6226 68.6752 74.063 71.9754 67.976 75.0332V75.0341C61.8933 78.1006 54.4265 81.8462 51.392 83.373C49.8766 84.1355 48.4868 84.8246 47.4701 85.3203C46.9616 85.5682 46.5479 85.7674 46.2592 85.9023C46.1614 85.948 46.0795 85.9852 46.014 86.0146C46.0049 86.0101 45.9957 86.0049 45.9857 86Z" fill="#73C27E" stroke="#73C27E"/>
<line y1="-1" x2="43.6294" y2="-1" transform="matrix(0.898621 0.438725 -0.526693 0.850056 5.88098 26.1018)" stroke="#73C27E" stroke-width="2"/>
<line x1="46.0873" y1="45.2431" x2="46.0873" y2="85.2659" stroke="#73C27E" stroke-width="2"/>
<line y1="-1" x2="45.3992" y2="-1" transform="matrix(0.906771 -0.421623 0.508208 0.861234 47.0476 45.2431)" stroke="#73C27E" stroke-width="2"/>
<line x1="45.0873" y1="44.7431" x2="47.0476" y2="44.7431" stroke="#73C27E"/>
<g clip-path="url(#clip1_10_75)">
<path d="M63.9738 48.1489C63.8208 48.2691 63.7284 48.472 63.7632 48.6112C63.7769 48.6715 63.8011 48.6904 63.9465 48.7774C64.1646 48.9019 64.2872 49.0036 64.3796 49.1327C64.5099 49.3142 64.5765 49.5073 64.6083 49.7946C64.6159 49.8685 64.631 50.8671 64.6386 52.0147C64.6477 53.1615 64.6583 54.2373 64.6628 54.4054L64.6719 54.7088L62.2019 59.6251C60.8434 62.3296 59.6924 64.6332 59.6425 64.7456C59.1912 65.7784 59.0276 66.7281 59.1881 67.38C59.335 67.9732 59.7424 68.2848 60.3467 68.2638C60.5133 68.2576 60.7404 68.2175 60.9055 68.1643C61.1932 68.0707 61.2372 68.0482 67.3737 64.8987L73.386 61.8129L73.5526 61.6947C74.1144 61.2946 74.5006 60.9112 74.8398 60.4143C75.2593 59.8031 75.4683 59.189 75.4683 58.5819C75.4668 57.8798 75.173 57.2707 74.6127 56.8102C74.5597 56.767 73.4693 55.6839 72.1881 54.404L69.8573 52.0767L69.8528 51.9744C69.8286 51.3124 69.7695 48.443 69.768 47.8531C69.7665 47.172 69.7695 47.0658 69.7937 46.9277C69.8801 46.4319 70.0512 46.0256 70.4313 45.4226C70.5737 45.1971 70.5979 45.1308 70.5888 45.0159C70.5797 44.9173 70.5192 44.8601 70.4268 44.8581L70.3601 44.8579L67.1934 46.4823C65.1429 47.5332 64.0086 48.1205 63.9738 48.1489ZM69.5514 46.0455C69.4333 46.2945 69.3091 46.6123 69.2546 46.8033C69.1592 47.1363 69.1304 47.3903 69.1304 47.9406L69.1304 48.3818L68.9714 48.4603L68.8124 48.5388L68.8169 47.9263C68.823 47.2891 68.8306 47.1567 68.882 46.9359C68.9184 46.7782 69.0229 46.5063 69.1001 46.3665C69.1304 46.3121 69.1456 46.2729 69.135 46.2784C69.1259 46.283 69.0547 46.3539 68.9805 46.4338C68.6307 46.809 68.4474 47.1033 68.3581 47.4302C68.3066 47.6166 68.2899 47.7448 68.2899 47.9841C68.2899 48.0962 68.2854 48.3303 68.2808 48.5046L68.2702 48.8226L68.0128 48.9501C67.728 49.0915 67.622 49.1608 67.5478 49.2526C67.4009 49.4356 67.3752 49.6507 67.4903 49.7293C67.5751 49.789 67.619 49.777 67.9688 49.5977L68.2748 49.4409L68.2717 50.1632C68.2687 50.5626 68.2657 51.092 68.2626 51.3418L68.2581 51.7972L67.9825 51.9385C67.831 52.0161 67.6796 52.1012 67.6463 52.1272C67.3903 52.3272 67.3388 52.69 67.5599 52.7308L67.6266 52.7415L67.9431 52.5837L68.2611 52.4252L68.2566 53.0063C68.252 53.6247 68.2551 53.6665 68.3278 53.8775C68.3929 54.0655 68.4686 54.2121 68.6064 54.4241L68.7397 54.625L68.6988 54.6699C68.6322 54.7414 68.5761 54.8778 68.5761 54.972C68.5731 55.1814 68.7079 55.229 68.9563 55.1032L69.085 55.0372L69.2364 55.2019C69.3197 55.2923 69.506 55.4809 69.6499 55.621L69.9119 55.8741L68.8245 56.4224C68.2263 56.723 67.195 57.247 66.5316 57.587L65.3246 58.2056L65.5639 57.6897C66.2212 56.2731 66.5725 55.3558 66.6952 54.7366C66.7194 54.6091 66.7225 54.5253 66.7194 53.8569C66.7179 53.1444 66.6982 51.5783 66.6695 49.6355C66.6573 48.8521 66.6513 48.6967 66.6301 48.6388C66.5604 48.4382 66.3605 48.3313 65.997 48.2978C65.8244 48.2816 65.414 48.2841 65.4019 48.3007C65.3988 48.3068 65.4185 48.3326 65.4473 48.3582C65.5442 48.4401 65.6215 48.5725 65.6714 48.7338C65.7169 48.887 65.7275 49.3736 65.7441 52.163L65.7593 54.5598L64.6946 56.8057L63.63 59.0517L63.2362 59.2579L62.8425 59.4627L64.0464 57.0632C64.7083 55.7445 65.2595 54.6365 65.2716 54.6004C65.2943 54.5364 65.2913 53.9159 65.255 50.1137C65.2489 49.4723 65.2353 49.3118 65.1671 49.0745C65.1066 48.8633 64.9824 48.6533 64.8112 48.4808L64.7173 48.3854L65.7729 47.8369C66.3529 47.5352 67.4645 46.961 68.2399 46.5606L69.6529 45.8335L69.5514 46.0455ZM69.1531 49.2105C69.1531 49.3332 69.1607 49.6358 69.1683 49.8877C69.1758 50.138 69.1864 50.5618 69.1925 50.8278L69.2031 51.3129L68.9941 51.42L68.7851 51.5271L68.7942 50.7703C68.8003 50.3544 68.8048 49.8242 68.8048 49.5909L68.8048 49.1692L68.979 49.08L69.1531 48.9907L69.1531 49.2105ZM69.2198 52.0012C69.2243 52.0378 69.2289 52.1656 69.2289 52.2867C69.2289 52.4273 69.2364 52.5266 69.2485 52.5622C69.2652 52.603 70.1723 53.5378 70.3677 53.7114L70.398 53.7362L70.1042 53.8838L69.8119 54.0291L69.3773 53.5565C69.1365 53.2971 68.9032 53.0428 68.8563 52.9905L68.7715 52.8964L68.7821 52.5246L68.7942 52.1505L69.0017 52.0442L69.2092 51.9379L69.2198 52.0012ZM71.1219 54.4658C71.3097 54.6552 71.502 54.8483 71.5505 54.8967L71.6368 54.9856L71.3157 55.1501L70.9932 55.3139L70.604 54.8898L70.2148 54.4657L70.4601 54.3325C70.6131 54.2496 70.7175 54.1856 70.7357 54.1658C70.7524 54.1468 70.769 54.1308 70.7736 54.1269C70.7781 54.1246 70.9341 54.278 71.1219 54.4658ZM60.5208 67.5853C60.5208 67.5883 60.5072 67.5923 60.4905 67.5919C60.4739 67.5914 60.4603 67.588 60.4603 67.5835C60.4603 67.5805 60.4739 67.5765 60.4905 67.5769C60.5072 67.5773 60.5208 67.5808 60.5208 67.5853ZM60.7026 67.5729C60.7147 67.5742 60.7192 67.5793 60.7101 67.584C60.7026 67.5879 60.6844 67.5897 60.6723 67.5885C60.6602 67.5872 60.6571 67.5813 60.6647 67.5774C60.6738 67.5727 60.6905 67.5717 60.7026 67.5729Z" fill="#73C27E"/>
</g>
<g clip-path="url(#clip2_10_75)">
<path d="M22.0771 41.5789C21.3053 41.309 20.639 41.4566 20.2448 41.9893C20.019 42.2923 19.9209 42.6493 19.919 43.166C19.9172 43.6257 19.982 43.9481 20.18 44.4607C20.3133 44.8031 20.4299 45.0304 20.639 45.3488C21.0425 45.961 21.5477 46.4407 22.1141 46.7462L22.3343 46.8648L23.0617 48.6897C23.6317 50.1181 23.7835 50.5175 23.7668 50.5242C23.7539 50.5309 23.6558 50.5625 23.5484 50.5969C23.1246 50.7337 22.76 51.0131 22.4935 51.4095C22.401 51.5467 22.388 51.5552 22.3454 51.5258C22.3195 51.5068 21.9623 51.2781 21.5496 51.0152C21.1369 50.7504 20.4854 50.3346 20.1023 50.0888L19.4064 49.6446L19.3934 49.5714C19.3712 49.4344 19.275 49.1243 19.2009 48.9436C18.9122 48.2475 18.418 47.6402 17.8295 47.2625C17.278 46.9075 16.669 46.8352 16.26 47.0767C15.4993 47.5224 15.4956 48.8508 16.2508 50.022C16.4803 50.3775 16.7579 50.6835 17.0799 50.9342C17.3094 51.1127 17.6925 51.3109 17.9165 51.3648C18.4014 51.4839 18.8252 51.3852 19.0917 51.0916C19.1324 51.0459 19.1769 51.0191 19.188 51.0286C19.1991 51.0381 19.4008 51.2043 19.634 51.3924C19.8691 51.5833 20.1967 51.8501 20.3651 51.9878C20.6964 52.2585 21.7606 53.1217 21.9105 53.2423L22.003 53.3164L22.016 53.4544C22.0549 53.8511 22.0752 53.9967 22.1233 54.2307C22.2196 54.6969 22.3732 55.1696 22.5675 55.6003C22.6342 55.7468 22.6582 55.8181 22.6453 55.8267C22.636 55.8353 22.3103 56.0965 21.9197 56.4103C21.5311 56.7231 21.2016 56.9863 21.1887 56.993C21.172 57.0035 21.1554 56.9949 21.1128 56.9579C21.0832 56.9313 20.9758 56.8439 20.874 56.7651C20.713 56.6388 20.6501 56.5989 20.3928 56.4671C20.1707 56.3514 20.0578 56.303 19.9394 56.2671C18.9677 55.9841 18.2385 56.3927 18.0109 57.3418C17.9553 57.5817 17.9553 58.0671 18.0127 58.3724C18.1182 58.9423 18.3329 59.4596 18.679 59.9796C18.927 60.3541 19.1898 60.6506 19.5045 60.9165C19.7525 61.1254 19.858 61.1947 20.1707 61.355C20.4872 61.5172 20.6427 61.5703 20.924 61.6098C21.3275 61.6662 21.7458 61.5646 22.0271 61.3376C22.2992 61.1174 22.4935 60.7221 22.5509 60.2776C22.5768 60.0758 22.562 59.6438 22.5231 59.4336C22.4824 59.2186 22.3954 58.917 22.3195 58.7221L22.2547 58.5576L23.0506 58.0709L23.8446 57.5814L24.0519 57.7961C24.5756 58.3329 25.1864 58.7791 25.7639 59.0484C25.9767 59.148 26.3469 59.2901 26.3802 59.2863C26.3876 59.2862 26.432 59.4518 26.482 59.6582C26.5301 59.8636 26.6097 60.1975 26.6596 60.404C26.7096 60.6085 26.7503 60.7911 26.7503 60.8082C26.7503 60.8235 26.7096 60.8692 26.6596 60.9102C26.2932 61.2039 25.973 61.7155 25.8157 62.2572C25.4899 63.3769 25.6954 64.8544 26.3765 66.2693C26.9965 67.5615 27.9071 68.6468 29.0231 69.4281C29.3192 69.6351 29.9392 69.9566 30.2391 70.0608C30.4353 70.1271 30.7647 70.2198 30.8591 70.232C30.885 70.2358 30.9812 70.2508 31.0719 70.265C31.2607 70.2932 31.6475 70.2973 31.8345 70.2713C32.312 70.2115 32.7987 69.9928 33.13 69.6924C33.7852 69.0975 34.1202 68.0473 34.024 66.8865C33.9851 66.4288 33.874 65.8675 33.7334 65.4243C33.6445 65.1428 33.4706 64.7072 33.3244 64.4058C32.6488 62.9976 31.6087 61.8155 30.3779 61.0572C30.067 60.8655 29.5025 60.6105 29.2433 60.5443C29.2026 60.5348 29.1675 60.473 28.8362 59.8255C28.6344 59.4366 28.4716 59.1134 28.4716 59.1077C28.4716 59.1019 28.5271 59.0581 28.5937 59.0104C29.5635 58.3084 29.843 56.7253 29.3007 55.0276C29.2489 54.864 29.2489 54.8583 29.2804 54.8421C29.2989 54.8325 29.7227 54.6672 30.2206 54.4712L31.1275 54.1195L31.183 54.1861C31.2755 54.2963 31.5642 54.5813 31.692 54.6886C32.4693 55.3439 33.2725 55.5558 33.8056 55.2446C34.0647 55.0938 34.222 54.8604 34.3219 54.4777C34.3552 54.352 34.3552 53.8382 34.3219 53.6498C34.2109 53.0124 33.8796 52.3021 33.4224 51.7157C33.2725 51.5247 32.9857 51.2273 32.7839 51.0554C31.9474 50.343 31.0201 50.1647 30.5222 50.6214C30.2965 50.8273 30.178 51.094 30.1391 51.489C30.1114 51.7507 30.1521 52.1599 30.228 52.4062C30.2446 52.4566 30.1947 52.4748 29.2822 52.7247C28.751 52.8712 28.3068 52.9861 28.2957 52.9842C28.2828 52.9814 28.2273 52.9168 28.1699 52.8398C27.7979 52.3351 27.2667 51.7945 26.7892 51.4337C26.271 51.0406 25.6454 50.72 25.1309 50.5838C25.0494 50.563 24.9791 50.5384 24.9736 50.5298C24.968 50.5232 24.7219 49.7004 24.4239 48.7046L23.8834 46.8917L23.9538 46.8516C24.2388 46.6912 24.5016 46.293 24.5923 45.8884C24.6719 45.5333 24.6719 45.1736 24.5904 44.7512C24.3887 43.6943 23.7243 42.6477 22.8377 41.9954C22.6804 41.8786 22.2325 41.6338 22.0771 41.5789Z" fill="#73C27E"/>
</g>
<line x1="45" y1="44.1887" x2="47" y2="44.1887" stroke="#73C27E"/>
<defs>
<clipPath id="clip0_10_75">
<rect width="22.8918" height="22.8918" fill="white" transform="matrix(0.889934 0.45609 -0.889934 0.45609 46.8365 13.921)"/>
</clipPath>
<clipPath id="clip1_10_75">
<rect width="19.0765" height="19.1413" fill="white" transform="matrix(0.889934 -0.45609 2.48183e-08 1 58.8095 50.4635)"/>
</clipPath>
<clipPath id="clip2_10_75">
<rect width="20.9842" height="24.3617" fill="white" transform="matrix(0.889934 0.45609 -2.48183e-08 1 15.6826 38.2827)"/>
</clipPath>
</defs>
</svg>
