<svg viewBox="0 0 25 25" xmlns="http://www.w3.org/2000/svg" xmlns:xlink="http://www.w3.org/1999/xlink" width="25.000000" height="25.000000" fill="none">
	<rect id="map-marked-alt" width="25.000000" height="25.000000" x="0.000000" y="0.000000" fill="rgb(0,0,0)" fill-opacity="0" />
	<path id="Vector" d="M12.5 1.38867C9.4796 1.38867 7.03125 3.83702 7.03125 6.85742C7.03125 9.29926 10.6055 13.7498 11.9748 15.3652C12.2522 15.6925 12.7483 15.6925 13.0252 15.3652C14.3945 13.7498 17.9688 9.29926 17.9688 6.85742C17.9688 3.83702 15.5204 1.38867 12.5 1.38867ZM12.5 8.68034C11.4931 8.68034 10.6771 7.86437 10.6771 6.85742C10.6771 5.85048 11.4931 5.0345 12.5 5.0345C13.5069 5.0345 14.3229 5.85048 14.3229 6.85742C14.3229 7.86437 13.5069 8.68034 12.5 8.68034ZM0.873264 10.7615C0.615529 10.8646 0.394588 11.0425 0.238936 11.2724C0.083285 11.5022 6.17278e-05 11.7734 1.34923e-16 12.051L0 22.9156C0 23.4069 0.496094 23.7428 0.952257 23.5605L6.94444 20.8331L6.94444 10.7168C6.56076 10.0232 6.24696 9.34787 6.02214 8.70204L0.873264 10.7615ZM12.5 16.9993C11.8893 16.9993 11.3116 16.7311 10.9154 16.2632C10.0621 15.2563 9.15451 14.1096 8.33333 12.9334L8.33333 20.8327L16.6667 23.6105L16.6667 12.9338C15.8455 14.1096 14.9384 15.2567 14.0846 16.2637C13.6884 16.7311 13.1107 16.9993 12.5 16.9993ZM24.0477 8.38346L18.0556 11.1109L18.0556 23.6109L24.1267 21.1825C24.3845 21.0795 24.6055 20.9015 24.7611 20.6717C24.9168 20.4418 25 20.1706 25 19.893L25 9.02843C25 8.53711 24.5039 8.20117 24.0477 8.38346Z" fill="rgb(0,0,0)" fill-rule="nonzero" />
</svg>
