<svg viewBox="0 0 134 134" xmlns="http://www.w3.org/2000/svg" xmlns:xlink="http://www.w3.org/1999/xlink" width="134.000000" height="134.000000" fill="none">
	<rect id="surgery-tools 1" width="134.000000" height="134.000000" x="0.000000" y="0.000000" fill="rgb(255,255,255)" fill-opacity="0" />
	<path id="Vector" d="M81.6562 35.7256L77.4688 35.7256L77.4688 40.045L81.6562 40.045L81.6562 35.7256Z" fill="rgb(0,0,0)" fill-rule="evenodd" />
	<path id="Vector" d="M64.9063 27.2187L64.9063 37.1033C64.9034 38.2287 65.124 39.3434 65.5553 40.3828C65.9866 41.4223 66.62 42.3657 67.4188 43.1585L67.8145 43.5521C68.2212 43.9581 68.5436 44.4405 68.7631 44.9716C68.9827 45.5027 69.095 46.072 69.0938 46.6466L69.0938 51.4141C67.8249 52.1435 66.7701 53.1936 66.0352 54.4592C65.3002 55.7249 64.9109 57.1615 64.9063 58.625L64.9063 112.016C64.9063 113.959 65.6783 115.823 67.0526 117.197C68.4269 118.572 70.2909 119.344 72.2344 119.344L74.3282 119.344C76.2717 119.344 78.1356 118.572 79.5099 117.197C80.8842 115.823 81.6563 113.959 81.6563 112.016L81.6563 44.2305L77.4688 44.2305L77.4688 50.25L73.2813 50.25L73.2813 46.6466C73.2836 45.5211 73.0628 44.4062 72.6315 43.3665C72.2002 42.3268 71.5671 41.3829 70.7688 40.5894L70.371 40.1937C69.9645 39.7885 69.6424 39.3067 69.4231 38.7763C69.2039 38.2459 69.092 37.6773 69.0938 37.1033L69.0938 27.2187C69.0964 24.8062 69.9309 22.4684 71.4566 20.5995C72.9822 18.7306 75.1056 17.4449 77.4688 16.9594L77.4688 31.536L81.6563 31.536L81.6563 12.5625L79.5625 12.5625C75.677 12.5675 71.952 14.1132 69.2045 16.8607C66.457 19.6082 64.9113 23.3332 64.9063 27.2187ZM77.4688 112.016C77.4688 112.849 77.1379 113.647 76.5489 114.236C75.9599 114.825 75.1611 115.156 74.3282 115.156L72.2344 115.156C71.4015 115.156 70.6026 114.825 70.0136 114.236C69.4247 113.647 69.0938 112.849 69.0938 112.016L69.0938 64.9062L77.4688 64.9062L77.4688 112.016ZM77.4688 54.4375L77.4688 60.7187L69.0938 60.7187L69.0938 58.625C69.0938 57.5144 69.535 56.4493 70.3203 55.664C71.1056 54.8787 72.1707 54.4375 73.2813 54.4375L77.4688 54.4375ZM129.865 96.1303C129.619 91.8242 127.963 87.7187 125.152 84.4472C124.101 83.2734 122.953 82.1899 121.72 81.2082C120.677 80.4351 119.776 79.4873 119.057 78.4067C117.424 75.6743 116.802 72.4556 117.298 69.3115C117.305 69.1357 117.289 68.9596 117.25 68.7881L117.25 57.0296L117.325 56.927L111.153 13.6408C111.073 13.0933 110.799 12.5928 110.381 12.2309C109.962 11.869 109.427 11.6698 108.874 11.6698C108.321 11.6698 107.786 11.869 107.367 12.2309C106.949 12.5928 106.675 13.0933 106.595 13.6408L100.563 55.9576C100.56 56.0807 100.567 56.2039 100.584 56.3261C100.542 56.4624 100.514 56.6027 100.5 56.7448L100.5 68.8885C100.5 68.9514 100.531 69.0037 100.536 69.0665C100.522 69.1489 100.514 69.2322 100.513 69.3157C101.008 72.4605 100.386 75.6796 98.7538 78.413C98.0374 79.4901 97.1407 80.4356 96.1032 81.2082C94.8698 82.1897 93.7212 83.2732 92.6694 84.4472C89.8511 87.7174 88.1881 91.8247 87.9375 96.1345C87.6745 100.096 88.458 104.056 90.2092 107.619C92.2102 112.095 95.3197 115.986 99.2438 118.925C99.688 119.258 100.246 119.401 100.796 119.323C101.346 119.244 101.842 118.95 102.175 118.506C102.508 118.062 102.651 117.504 102.573 116.954C102.494 116.404 102.201 115.908 101.756 115.575C98.4062 113.072 95.7488 109.758 94.0345 105.944C92.578 103.015 91.9194 99.7532 92.125 96.4884C92.298 93.0874 93.5847 89.8377 95.787 87.2403C96.6961 86.2244 97.6908 85.2886 98.7601 84.443C100.127 83.4074 101.308 82.148 102.255 80.7182C104.047 77.8719 104.934 74.5486 104.799 71.1875L113.012 71.1875C112.882 74.55 113.775 77.8728 115.575 80.7161C116.522 82.1465 117.703 83.4065 119.07 84.443C120.139 85.2886 121.134 86.2244 122.043 87.2403C124.246 89.8378 125.533 93.0886 125.705 96.4905C125.904 99.7538 125.241 103.012 123.78 105.937C122.067 109.751 119.41 113.066 116.061 115.569C115.841 115.734 115.656 115.94 115.515 116.177C115.375 116.414 115.283 116.675 115.244 116.948C115.205 117.22 115.221 117.497 115.289 117.763C115.357 118.03 115.477 118.28 115.642 118.5C115.807 118.72 116.014 118.905 116.25 119.045C116.487 119.185 116.749 119.278 117.021 119.316C117.293 119.355 117.57 119.34 117.837 119.272C118.103 119.204 118.353 119.084 118.573 118.919C122.495 115.979 125.602 112.088 127.602 107.612C129.349 104.05 130.13 100.09 129.865 96.1303ZM104.688 58.625L113.063 58.625L113.063 67L104.688 67L104.688 58.625ZM108.875 27.3276L112.742 54.4375L105.01 54.4375L108.875 27.3276Z" fill="rgb(0,0,0)" fill-rule="nonzero" />
	<path id="Vector" d="M110.969 60.7188L106.781 60.7188L106.781 64.9062L110.969 64.9062L110.969 60.7188Z" fill="rgb(0,0,0)" fill-rule="evenodd" />
	<path id="Vector" d="M46.0164 99.2103C43.7872 99.6659 41.7703 100.843 40.2774 102.56L34.3375 72.9212L45.9368 15.0436C45.9917 14.7737 45.9928 14.4956 45.94 14.2253C45.8872 13.955 45.7816 13.6977 45.6292 13.4683C45.4768 13.2388 45.2806 13.0417 45.052 12.8882C44.8233 12.7347 44.5665 12.6278 44.2965 12.5737C44.0264 12.5195 43.7483 12.5192 43.4781 12.5728C43.2079 12.6263 42.951 12.7326 42.7219 12.8856C42.4929 13.0386 42.2963 13.2353 42.1434 13.4644C41.9905 13.6935 41.8844 13.9506 41.831 14.2208L32.1997 62.264L22.5685 14.2208C22.4581 13.6776 22.1368 13.2003 21.675 12.8937C21.2133 12.587 20.6488 12.476 20.1053 12.5849C19.5618 12.6938 19.0836 13.0138 18.7757 13.4747C18.4678 13.9356 18.3552 14.4998 18.4626 15.0436L30.0578 72.9212L24.1221 102.548C22.8341 101.093 21.1655 100.026 19.3042 99.4681C17.4429 98.91 15.4628 98.8826 13.5868 99.389C11.7108 99.8954 10.0133 100.915 8.68565 102.334C7.35796 103.753 6.45271 105.514 6.07183 107.42C5.54751 110.134 6.11776 112.945 7.65817 115.24C9.19859 117.535 11.5842 119.128 14.2944 119.671C17.0046 120.213 19.8196 119.662 22.1251 118.138C24.4307 116.613 26.0396 114.238 26.601 111.532L32.1997 83.5804L37.8005 111.532C38.2792 113.902 39.5618 116.033 41.4312 117.566C43.3007 119.099 45.6423 119.939 48.0599 119.945C48.7505 119.944 49.4394 119.874 50.116 119.735C51.5004 119.505 52.8244 118.998 54.0092 118.246C55.1939 117.493 56.2152 116.51 57.0124 115.355C57.8096 114.2 58.3663 112.896 58.6496 111.521C58.9328 110.146 58.9366 108.729 58.661 107.353C58.3853 105.976 57.8357 104.67 57.0449 103.51C56.2541 102.351 55.2382 101.362 54.0575 100.603C52.8769 99.8439 51.5558 99.33 50.1726 99.0919C48.7894 98.8537 47.3724 98.8961 46.0059 99.2166L46.0164 99.2103ZM19.8257 114.704C19.141 115.165 18.3715 115.484 17.562 115.645C16.7524 115.805 15.9191 115.803 15.1106 115.638C13.8923 115.394 12.7737 114.795 11.8962 113.915C11.0186 113.036 10.4216 111.916 10.1805 110.697C9.93945 109.479 10.0652 108.216 10.5419 107.068C11.0186 105.921 11.8248 104.941 12.8585 104.252C13.8923 103.563 15.1071 103.196 16.3495 103.197C17.5918 103.199 18.8059 103.569 19.838 104.26C20.8702 104.951 21.6742 105.933 22.1483 107.082C22.6224 108.23 22.7453 109.493 22.5015 110.711C22.3418 111.52 22.023 112.29 21.5637 112.975C21.1044 113.66 20.5136 114.247 19.8257 114.702L19.8257 114.704ZM49.3057 115.638C48.0875 115.882 46.8241 115.76 45.6754 115.287C44.5267 114.813 43.5441 114.01 42.8521 112.978C42.1601 111.946 41.7897 110.732 41.7877 109.49C41.7857 108.247 42.1523 107.032 42.8411 105.998C43.5298 104.964 44.5098 104.157 45.657 103.68C46.8042 103.203 48.0672 103.077 49.2861 103.317C50.5051 103.558 51.6252 104.155 52.5049 105.032C53.3846 105.91 53.9843 107.029 54.2281 108.247C54.5496 109.879 54.2125 111.572 53.2903 112.956C52.368 114.341 50.9356 115.304 49.3057 115.636L49.3057 115.638Z" fill="rgb(0,0,0)" fill-rule="nonzero" />
</svg>
